<svg version="1.2" xmlns="http://www.w3.org/2000/svg" viewBox="0 0 487 318" width="487" height="318"><defs><clipPath clipPathUnits="userSpaceOnUse" id="cp1"><path d="m18.06 17.72l452.88-2.32-2.27 256.55-446.22 0.8z"/></clipPath></defs><style>.a{fill:#1b262f}.b{fill:#2e3f4d}.c{fill:#ba4270}.d{fill:#527695}.e{fill:#36536b}.f{fill:#fbfcfe}</style><path class="a" d="m26.2 17.7l436.5-2.3c4.6 0 8.2 3.7 8.2 8.3l-2.4 272.3c-0.1 4.4-3.7 8-8.2 8l-429.3 0.6c-4.4 0-8.1-3.6-8.1-8l-4.7-270.7c-0.1-4.5 3.5-8.2 8-8.2z"/><g clip-path="url(#cp1)"><path class="b" d="m18.2 25.9c-0.1-4.5 3.5-8.2 8-8.2l436.5-2.3c4.6 0 8.2 3.7 8.2 8.3l-0.3 32.9-451.8 2.1z"/><path class="c" d="m42.8 46.3c-4.5 0-8.1-3.6-8.2-8.1-0.1-4.6 3.5-8.3 7.9-8.3 4.5 0 8.2 3.6 8.3 8.2 0 4.5-3.5 8.2-8 8.2z"/><path class="d" d="m65.4 46.2c-4.4 0-8.1-3.6-8.2-8.2 0-4.5 3.5-8.2 8-8.2 4.5 0 8.2 3.6 8.2 8.2 0.1 4.5-3.5 8.2-8 8.2z"/><path class="e" d="m88.1 46.1c-4.5 0-8.1-3.6-8.2-8.2-0.1-4.5 3.5-8.2 8-8.2 4.5 0 8.1 3.6 8.2 8.2 0.1 4.5-3.5 8.2-8 8.2z"/><path fill-rule="evenodd" class="f" d="m54.3 102.2l-0.3 0.1 0.3 0.1 4 1.5v1.3l-5.5-2.4v-1l5.4-2.4v1.2zm8.2 4.3v-6.1h-1.9l-0.1-0.9h1.9v-0.5q0-0.7 0.2-1.2 0.2-0.5 0.6-0.8 0.3-0.4 0.8-0.6 0.5-0.1 1.1-0.1 0.4 0 0.8 0 0.4 0.1 0.9 0.2l-0.2 1q-0.2-0.1-0.6-0.1-0.3-0.1-0.7-0.1-0.9 0-1.3 0.4-0.4 0.4-0.4 1.3v0.5h2.7v0.9h-2.7l0.1 6.1zm5.8-3.6q-0.1-0.8 0.2-1.4 0.2-0.7 0.6-1.1 0.4-0.5 0.9-0.8 0.6-0.3 1.3-0.3 0.8 0 1.4 0.3 0.6 0.3 1 0.7 0.4 0.5 0.6 1.2 0.2 0.6 0.3 1.4v0.1q0 0.8-0.2 1.4-0.3 0.7-0.7 1.1-0.3 0.5-0.9 0.8-0.6 0.3-1.3 0.3-0.8 0-1.4-0.3-0.5-0.3-1-0.7-0.4-0.5-0.6-1.2-0.2-0.6-0.2-1.4zm1.1 0.2q0.1 0.5 0.2 1 0.1 0.4 0.4 0.8 0.2 0.3 0.6 0.5 0.4 0.2 0.9 0.2 0.4 0 0.8-0.2 0.4-0.2 0.6-0.5 0.3-0.4 0.4-0.9 0.1-0.4 0.1-0.9v-0.2q0-0.5-0.2-1-0.1-0.4-0.4-0.8-0.2-0.3-0.6-0.5-0.3-0.3-0.8-0.3-0.5 0.1-0.9 0.3-0.4 0.2-0.6 0.5-0.2 0.4-0.3 0.9-0.2 0.4-0.2 0.9zm11.6-3.7q0.1 0 0.3 0 0.2 0 0.3 0 0.2 0 0.3 0.1 0.2 0 0.3 0l-0.2 1.2q-0.3-0.1-0.6-0.1-0.3 0-0.7 0-0.8 0-1.3 0.4-0.5 0.3-0.8 1l0.1 4.5h-1.2l-0.1-7h1.1l0.1 1.1q0.4-0.5 1-0.9 0.6-0.3 1.4-0.3zm3.8 0.1l0.1 0.7q0.2-0.4 0.5-0.6 0.4-0.2 0.8-0.2 1 0 1.3 0.7 0.2-0.3 0.6-0.5 0.3-0.2 0.8-0.2 0.7 0 1.2 0.4 0.4 0.5 0.4 1.4l0.1 5.3h-1.2v-5.3q-0.1-0.8-0.9-0.8-0.2 0-0.3 0-0.2 0.1-0.3 0.2-0.1 0.1-0.1 0.2-0.1 0.2-0.1 0.3l0.1 5.4h-1.2v-5.3q0-0.4-0.2-0.6-0.2-0.2-0.6-0.2-0.4 0-0.6 0.1-0.2 0.2-0.3 0.4l0.1 5.6h-1.1l-0.1-7zm15.4-0.1h3.5l0.1 6h2.2l0.1 1h-5.8l-0.1-1h2.4l-0.1-4.9h-2.3zm2.2-1.9q0-0.3 0.1-0.5 0.2-0.2 0.6-0.2 0.3 0 0.5 0.2 0.2 0.2 0.2 0.5 0 0.3-0.2 0.5-0.2 0.2-0.5 0.2-0.4 0-0.6-0.2-0.1-0.2-0.1-0.5zm5.3 5.3q0-0.8 0.2-1.4 0.2-0.7 0.5-1.2 0.4-0.5 0.9-0.7 0.5-0.3 1.1-0.3 0.6 0 1.1 0.2 0.5 0.2 0.8 0.6v-3.6h1.2l0.1 9.9h-1.1l-0.1-0.7q-0.3 0.4-0.8 0.6-0.5 0.3-1.1 0.3-0.6 0-1.1-0.3-0.6-0.3-0.9-0.7-0.4-0.5-0.6-1.2-0.2-0.6-0.2-1.4zm1.2 0.2q0 0.5 0.1 0.9 0.1 0.5 0.3 0.8 0.3 0.4 0.6 0.6 0.4 0.2 0.9 0.2 0.3 0 0.5-0.1 0.3-0.1 0.5-0.2 0.2-0.1 0.3-0.3 0.2-0.2 0.3-0.4l-0.1-3.3q-0.2-0.4-0.6-0.7-0.4-0.2-1-0.2-0.5 0-0.8 0.2-0.4 0.2-0.6 0.5-0.2 0.4-0.3 0.9-0.1 0.4-0.1 0.9zm12.6-1.7l-5.7 0.1v-1.1h5.7zm0 2.7h-5.7v-1h5.7zm4.2-6.9l-0.1 2.4h-0.8l-0.1-2.3v-0.8h1zm2.3 0l-0.1 2.4h-0.8l-0.1-2.3v-0.8h1zm5.3 9.2v-6.1h-1.9l-0.1-0.9h2v-0.5q-0.1-0.7 0.1-1.2 0.2-0.5 0.6-0.9 0.3-0.3 0.8-0.5 0.5-0.2 1.1-0.2 0.5 0 0.9 0.1 0.4 0.1 0.8 0.2l-0.1 1q-0.3-0.1-0.7-0.2-0.3-0.1-0.7 0-0.8 0-1.3 0.4-0.4 0.4-0.4 1.3v0.5l2.7-0.1v1h-2.6v6.1zm5.8-3.6q0-0.8 0.2-1.4 0.2-0.7 0.6-1.2 0.4-0.5 1-0.7 0.5-0.3 1.3-0.3 0.7 0 1.3 0.3 0.6 0.2 1 0.7 0.4 0.5 0.6 1.1 0.3 0.7 0.3 1.4v0.2q0 0.7-0.2 1.4-0.2 0.6-0.6 1.1-0.4 0.5-1 0.8-0.6 0.2-1.3 0.2-0.8 0-1.4-0.2-0.6-0.3-1-0.8-0.4-0.4-0.6-1.1-0.2-0.6-0.2-1.4zm1.2 0.1q0 0.6 0.1 1 0.1 0.5 0.4 0.9 0.2 0.3 0.6 0.5 0.4 0.2 0.9 0.2 0.4 0 0.8-0.2 0.4-0.2 0.6-0.6 0.3-0.3 0.4-0.8 0.1-0.5 0.1-1v-0.1q0-0.5-0.1-1-0.2-0.5-0.4-0.8-0.3-0.4-0.7-0.6-0.3-0.2-0.8-0.2-0.5 0-0.9 0.2-0.3 0.2-0.6 0.6-0.2 0.4-0.3 0.8-0.2 0.5-0.1 1zm11.5-3.7q0.2 0 0.3 0 0.2 0 0.4 0 0.2 0 0.3 0 0.1 0.1 0.2 0.1l-0.1 1.2q-0.4-0.1-0.7-0.1-0.3-0.1-0.6-0.1-0.9 0-1.4 0.4-0.5 0.4-0.7 1.1v4.5h-1.2l-0.1-7h1.2v1.1q0.5-0.6 1-0.9 0.6-0.3 1.4-0.3zm3.9 0.1v0.6q0.2-0.3 0.6-0.6 0.3-0.2 0.8-0.2 1 0 1.3 0.8 0.2-0.4 0.5-0.6 0.4-0.2 0.8-0.2 0.8 0 1.2 0.5 0.4 0.5 0.4 1.4l0.1 5.2h-1.1l-0.1-5.2q0-0.9-0.8-0.9-0.2 0-0.4 0.1-0.1 0.1-0.2 0.2-0.1 0.1-0.2 0.2 0 0.1-0.1 0.3l0.1 5.4h-1.1l-0.1-5.3q0-0.4-0.2-0.6-0.2-0.3-0.6-0.3-0.3 0-0.5 0.2-0.2 0.1-0.3 0.4v5.6h-1.1l-0.1-7zm12.6 3.3h-4.9v-1h4.9zm2.8-3.4h3.6v6h2.3v1h-5.8v-1h2.3v-4.9h-2.4zm2.2-1.9q0-0.3 0.2-0.5 0.2-0.2 0.5-0.2 0.4 0 0.6 0.2 0.2 0.2 0.2 0.5 0 0.3-0.2 0.5-0.2 0.2-0.5 0.2-0.4 0-0.6-0.2-0.2-0.2-0.2-0.5zm5.4 5.3q-0.1-0.8 0.1-1.5 0.2-0.6 0.6-1.1 0.3-0.5 0.9-0.7 0.5-0.3 1.1-0.3 0.6 0 1.1 0.2 0.5 0.2 0.8 0.6v-3.6h1.2v9.9h-1l-0.1-0.7q-0.4 0.4-0.8 0.6-0.5 0.3-1.2 0.3-0.6 0-1.1-0.3-0.5-0.3-0.9-0.8-0.3-0.4-0.5-1.1-0.2-0.6-0.2-1.4zm1.1 0.1q0 0.6 0.2 1 0.1 0.5 0.3 0.8 0.2 0.4 0.6 0.6 0.3 0.2 0.8 0.2 0.3 0 0.6-0.1 0.2-0.1 0.4-0.2 0.2-0.1 0.4-0.3 0.1-0.2 0.2-0.4v-3.3q-0.2-0.4-0.6-0.7-0.4-0.3-1-0.3-0.5 0-0.8 0.3-0.4 0.2-0.6 0.5-0.3 0.4-0.4 0.8-0.1 0.5-0.1 1zm9.1-5.8l-0.2 2.4h-0.8v-2.3-0.8h1zm2.2-0.1l-0.1 2.4h-0.8v-2.2-0.9h0.9zm12 2.2v0.7q0.2-0.4 0.6-0.6 0.3-0.2 0.8-0.2 1 0 1.3 0.7 0.2-0.3 0.5-0.5 0.4-0.2 0.8-0.2 0.8 0 1.2 0.4 0.4 0.5 0.4 1.5l0.1 5.2h-1.2v-5.2q0-0.9-0.8-0.9-0.2 0-0.4 0.1-0.1 0-0.2 0.1-0.1 0.1-0.2 0.3 0 0.1-0.1 0.2l0.1 5.4h-1.1l-0.1-5.2q0-0.4-0.2-0.7-0.2-0.2-0.6-0.2-0.3 0-0.5 0.2-0.2 0.1-0.3 0.4v5.5h-1.1l-0.1-7zm10.5 7.1q-0.7 0-1.4-0.2-0.6-0.3-1-0.7-0.5-0.5-0.7-1.1-0.2-0.6-0.3-1.4v-0.2q0-0.9 0.3-1.5 0.3-0.7 0.7-1.2 0.5-0.4 1-0.7 0.6-0.2 1.2-0.2 0.7 0 1.3 0.2 0.6 0.3 0.9 0.7 0.4 0.5 0.6 1.1 0.2 0.7 0.2 1.4v0.5h-5q0.1 0.5 0.2 0.9 0.2 0.5 0.5 0.8 0.3 0.3 0.7 0.5 0.4 0.1 0.8 0.1 0.7 0 1.2-0.2 0.5-0.3 0.8-0.7l0.7 0.6q-0.2 0.2-0.4 0.5-0.3 0.2-0.6 0.4-0.3 0.2-0.8 0.3-0.4 0.1-0.9 0.1zm-0.2-6.3q-0.4 0-0.7 0.2-0.3 0.1-0.6 0.4-0.2 0.2-0.4 0.6-0.2 0.4-0.2 0.9l3.7-0.1q0-0.4-0.1-0.7-0.1-0.4-0.4-0.7-0.2-0.2-0.5-0.4-0.3-0.2-0.8-0.2zm7.8-2.5v1.7l2.6-0.1v1h-2.6v3.8q0 0.4 0.1 0.7 0.1 0.2 0.3 0.4 0.2 0.1 0.4 0.2 0.3 0.1 0.5 0.1 0.2 0 0.4-0.1 0.2 0 0.4 0 0.2 0 0.4-0.1 0.2 0 0.3 0l0.1 0.8q-0.1 0.1-0.3 0.2-0.2 0-0.5 0.1-0.2 0-0.5 0.1-0.3 0-0.6 0-0.4 0-0.8-0.1-0.4-0.2-0.7-0.5-0.3-0.2-0.5-0.7-0.2-0.5-0.2-1.1v-3.8h-1.8v-0.9h1.8v-1.7zm6.3 2.7q0.3-0.6 0.9-0.9 0.5-0.3 1.2-0.3 0.6 0 1 0.2 0.5 0.1 0.8 0.4 0.3 0.4 0.5 0.9 0.1 0.5 0.1 1.2l0.1 4.4h-1.2v-4.4q-0.1-0.9-0.5-1.3-0.4-0.4-1.1-0.4-0.6 0-1.1 0.3-0.4 0.3-0.7 0.8v5h-1.2v-9.9h1.2zm6.4 2.4q-0.1-0.8 0.2-1.4 0.2-0.7 0.6-1.2 0.4-0.5 1-0.7 0.6-0.3 1.3-0.3 0.7 0 1.3 0.3 0.6 0.2 1 0.7 0.4 0.5 0.7 1.1 0.2 0.7 0.2 1.4v0.2q0 0.7-0.2 1.4-0.3 0.6-0.7 1.1-0.4 0.5-0.9 0.8-0.6 0.2-1.4 0.2-0.7 0.1-1.3-0.2-0.6-0.3-1-0.8-0.4-0.4-0.6-1.1-0.2-0.6-0.2-1.4zm1.1 0.1q0 0.6 0.2 1 0.1 0.5 0.3 0.9 0.3 0.3 0.7 0.5 0.3 0.2 0.8 0.2 0.5 0 0.9-0.2 0.4-0.2 0.6-0.6 0.2-0.3 0.4-0.8 0.1-0.5 0.1-1v-0.1q0-0.5-0.1-1-0.2-0.5-0.4-0.8-0.3-0.4-0.6-0.6-0.4-0.2-0.9-0.2-0.5 0-0.9 0.2-0.3 0.2-0.6 0.6-0.2 0.4-0.3 0.8-0.2 0.5-0.2 1zm6.9-0.2q0-0.7 0.2-1.4 0.1-0.7 0.5-1.1 0.4-0.5 0.9-0.8 0.5-0.2 1.1-0.2 0.7 0 1.1 0.2 0.5 0.2 0.8 0.6v-3.7h1.2v10h-1l-0.1-0.8q-0.3 0.5-0.8 0.7-0.5 0.2-1.1 0.2-0.7 0-1.2-0.2-0.5-0.3-0.9-0.8-0.3-0.5-0.5-1.1-0.2-0.7-0.2-1.4zm1.2 0.1q0 0.5 0.1 1 0.1 0.4 0.3 0.8 0.2 0.3 0.6 0.5 0.3 0.2 0.8 0.2 0.3 0 0.6 0 0.2-0.1 0.4-0.2 0.2-0.2 0.4-0.4 0.1-0.1 0.3-0.4l-0.1-3.2q-0.2-0.4-0.6-0.7-0.4-0.3-1-0.3-0.5 0-0.8 0.2-0.4 0.2-0.6 0.6-0.2 0.3-0.3 0.8-0.1 0.5-0.1 1zm12.6-2.7v1h-5.7v-1zm0 2.7v1h-5.7v-1zm4.2-5.9l-0.1 2.4h-0.8v-2.3-0.8h0.9zm2.3 0l-0.1 2.4h-0.8v-2.3-0.8h0.9zm9.6 8q-0.6 0.7-1.4 1-0.7 0.4-1.6 0.4-0.6 0-1.1-0.2-0.5-0.2-0.9-0.5-0.4-0.3-0.6-0.7-0.3-0.4-0.5-0.9-0.2-0.5-0.3-1-0.1-0.5-0.1-1v-1.1q0-0.5 0-1.1 0.1-0.5 0.3-1 0.2-0.4 0.5-0.9 0.2-0.4 0.6-0.7 0.4-0.3 0.9-0.5 0.4-0.1 1-0.1 0.7 0 1.2 0.2 0.6 0.2 1 0.5 0.4 0.4 0.7 1 0.2 0.5 0.3 1.1l-1.2 0.1q-0.1-0.5-0.2-0.8-0.2-0.3-0.4-0.6-0.3-0.2-0.6-0.4-0.3-0.1-0.8-0.1-0.4 0-0.7 0.1-0.4 0.2-0.6 0.4-0.2 0.3-0.4 0.6-0.2 0.3-0.3 0.7-0.1 0.4-0.1 0.7-0.1 0.4 0 0.8v1.1q0 0.3 0 0.7 0.1 0.4 0.2 0.7 0.1 0.4 0.3 0.7 0.2 0.4 0.4 0.6 0.3 0.2 0.6 0.4 0.3 0.1 0.8 0.1 0.2 0 0.5 0 0.2 0 0.5-0.1 0.3-0.1 0.5-0.2 0.2-0.1 0.3-0.3v-2.2h-1.9v-1h3.1zm7-3.1h-3.9v3.3h4.5v1h-5.7v-9.4h5.7v1h-4.6l0.1 3.1h3.9zm9-4.1h-2.9l0.1 8.4h-1.2v-8.4h-2.9v-1l6.9-0.1zm3.8-0.8l-0.2 2.4h-0.8v-2.3-0.8h1zm2.3 0l-0.2 2.4h-0.8v-2.3-0.8h1zm3.5 3.3v-1.2l5.7 2.4v0.9l-5.7 2.5v-1.2l4.2-1.6 0.3-0.1-0.3-0.2zm17.3 1.6l-0.4 0.1 0.4 0.1 3.9 1.5v1.3l-5.5-2.5v-0.9l5.5-2.5v1.3zm8 5.1h-1.1l4-10.3h1zm8.1-0.8l0.1-6.1h-2v-0.9h2v-0.5q0-0.7 0.1-1.2 0.2-0.5 0.6-0.9 0.4-0.3 0.9-0.5 0.5-0.2 1.1-0.2 0.4 0 0.8 0.1 0.4 0.1 0.8 0.2l-0.1 1q-0.3-0.1-0.6-0.2-0.4-0.1-0.8-0.1-0.8 0-1.2 0.5-0.4 0.4-0.4 1.3v0.4h2.6v1h-2.6l-0.1 6.1zm5.9-3.6q0-0.8 0.2-1.4 0.2-0.7 0.6-1.2 0.4-0.5 1-0.7 0.6-0.3 1.3-0.3 0.8 0 1.4 0.3 0.5 0.2 1 0.7 0.4 0.5 0.6 1.1 0.2 0.7 0.2 1.4v0.2q0 0.7-0.2 1.4-0.2 0.6-0.7 1.1-0.4 0.5-0.9 0.8-0.6 0.3-1.4 0.3-0.7 0-1.3-0.3-0.6-0.3-1-0.8-0.4-0.4-0.6-1.1-0.2-0.6-0.2-1.4zm1.2 0.1q0 0.6 0.1 1 0.1 0.5 0.3 0.9 0.3 0.3 0.7 0.5 0.3 0.2 0.8 0.2 0.5 0 0.9-0.2 0.4-0.2 0.6-0.5 0.3-0.4 0.4-0.9 0.1-0.4 0.1-1v-0.1q0-0.5-0.1-1-0.1-0.5-0.4-0.8-0.2-0.4-0.6-0.6-0.4-0.2-0.9-0.2-0.5 0-0.8 0.2-0.4 0.2-0.7 0.6-0.2 0.4-0.3 0.8-0.1 0.5-0.1 1zm11.6-3.8q0.2 0 0.3 0.1 0.2 0 0.4 0 0.2 0 0.3 0 0.1 0.1 0.2 0.1l-0.1 1.2q-0.4-0.1-0.7-0.1-0.3-0.1-0.7-0.1-0.8 0-1.3 0.4-0.5 0.4-0.8 1.1v4.5h-1.2v-7h1.2v1.1q0.4-0.6 1-0.9 0.6-0.4 1.4-0.4zm3.9 0.2v0.6q0.3-0.4 0.6-0.6 0.3-0.2 0.8-0.2 1 0 1.3 0.8 0.2-0.4 0.6-0.6 0.3-0.2 0.8-0.2 0.7 0 1.2 0.5 0.4 0.5 0.4 1.4v5.3h-1.2v-5.3q0-0.9-0.8-0.9-0.2 0-0.3 0.1-0.2 0.1-0.3 0.2-0.1 0.1-0.2 0.2 0 0.1 0 0.3v5.4h-1.2v-5.3q0-0.4-0.2-0.6-0.1-0.3-0.5-0.3-0.4 0-0.6 0.2-0.2 0.1-0.3 0.4v5.6h-1.2v-7zm7.4 1.1v-1.3l5.7 2.4v1l-5.7 2.5v-1.3l4.2-1.6 0.4-0.1-0.4-0.1zm-306.3 23.1l-0.3 0.2 0.3 0.1 3.9 1.5 0.1 1.2-5.5-2.4v-0.9l5.4-2.5v1.3zm11 2.4q0-0.2-0.1-0.4-0.1-0.2-0.3-0.3-0.2-0.2-0.5-0.3-0.3-0.1-0.8-0.2-0.6-0.1-1.1-0.3-0.5-0.2-0.9-0.4-0.3-0.2-0.5-0.6-0.2-0.3-0.2-0.7 0-0.5 0.2-0.8 0.2-0.4 0.5-0.7 0.4-0.3 0.9-0.4 0.5-0.2 1.1-0.2 0.6 0 1.1 0.2 0.5 0.1 0.9 0.4 0.4 0.3 0.6 0.7 0.2 0.4 0.2 0.9h-1.2q0-0.2-0.1-0.4-0.2-0.3-0.4-0.4-0.2-0.2-0.5-0.3-0.3-0.1-0.6-0.1-0.4 0-0.7 0.1-0.3 0.1-0.5 0.2-0.1 0.2-0.2 0.3-0.1 0.2-0.1 0.4 0 0.2 0.1 0.4 0 0.2 0.2 0.3 0.2 0.1 0.5 0.2 0.4 0.1 0.8 0.2 0.7 0.1 1.2 0.3 0.5 0.2 0.9 0.4 0.3 0.3 0.5 0.6 0.2 0.3 0.2 0.8 0 0.4-0.2 0.8-0.2 0.4-0.6 0.7-0.4 0.2-0.9 0.4-0.5 0.1-1.1 0.2-0.7 0-1.3-0.2-0.5-0.2-0.9-0.5-0.4-0.3-0.6-0.8-0.2-0.4-0.2-0.8h1.2q0 0.4 0.2 0.6 0.2 0.3 0.4 0.4 0.3 0.2 0.6 0.2 0.3 0.1 0.6 0.1 0.7 0 1.2-0.3 0.4-0.3 0.4-0.7zm6.2 1q0.3 0 0.6-0.1 0.3-0.2 0.6-0.3 0.2-0.2 0.4-0.5 0.1-0.2 0.1-0.5h1.1q0 0.4-0.2 0.9-0.2 0.4-0.6 0.7-0.4 0.3-0.9 0.5-0.5 0.2-1.1 0.2-0.7 0-1.3-0.3-0.6-0.2-1-0.7-0.4-0.5-0.6-1.1-0.2-0.6-0.3-1.3v-0.3q0-0.7 0.2-1.3 0.2-0.7 0.6-1.1 0.4-0.5 1-0.8 0.5-0.3 1.3-0.3 0.6 0 1.2 0.2 0.5 0.2 0.9 0.5 0.3 0.4 0.6 0.8 0.2 0.5 0.2 1h-1.1q0-0.3-0.2-0.6-0.1-0.3-0.3-0.5-0.3-0.2-0.6-0.3-0.3-0.1-0.7-0.1-0.5 0-0.9 0.2-0.3 0.2-0.6 0.6-0.2 0.3-0.3 0.8-0.1 0.4-0.1 0.9v0.2q0 0.5 0.1 1 0.2 0.4 0.4 0.8 0.2 0.3 0.6 0.5 0.4 0.3 0.9 0.3zm9.4-6.3q0.2 0 0.3 0 0.2 0 0.4 0 0.1 0 0.3 0 0.1 0.1 0.2 0.1l-0.1 1.2q-0.4-0.1-0.7-0.1-0.3-0.1-0.6-0.1-0.9 0-1.4 0.4-0.5 0.4-0.7 1.1v4.5h-1.2l-0.1-7h1.2v1.1q0.5-0.6 1-0.9 0.6-0.3 1.4-0.3zm3.5 0.1h3.5l0.1 5.9h2.3v1h-5.8v-1h2.3v-4.9h-2.4zm2.2-1.8q0-0.3 0.2-0.5 0.1-0.2 0.5-0.2 0.3 0 0.5 0.2 0.2 0.2 0.2 0.5 0 0.3-0.2 0.4-0.1 0.2-0.5 0.2-0.3 0-0.5-0.1-0.2-0.2-0.2-0.5zm11.4 5.3q0 0.8-0.2 1.4-0.1 0.7-0.5 1.1-0.3 0.5-0.8 0.8-0.5 0.3-1.2 0.3-0.6 0-1.1-0.2-0.5-0.2-0.8-0.6v3.3h-1.2l-0.1-9.6h1.1v0.7q0.4-0.4 0.9-0.6 0.5-0.3 1.1-0.3 0.7 0 1.2 0.3 0.5 0.3 0.8 0.7 0.4 0.5 0.6 1.2 0.2 0.6 0.2 1.4zm-1.2-0.1q0-0.6-0.1-1-0.1-0.5-0.4-0.8-0.2-0.4-0.6-0.6-0.3-0.2-0.8-0.2-0.6 0-1 0.3-0.4 0.3-0.6 0.7v3.3q0.3 0.4 0.7 0.7 0.4 0.3 0.9 0.3 0.5 0 0.9-0.2 0.3-0.3 0.6-0.6 0.2-0.4 0.3-0.8 0.1-0.5 0.1-1zm5.9-5.2l0.1 1.7h2.6v1h-2.6v3.8q0 0.4 0.1 0.6 0.1 0.3 0.3 0.4 0.2 0.2 0.4 0.3 0.3 0 0.5 0 0.2 0 0.4 0 0.2 0 0.4-0.1 0.2 0 0.4 0 0.2-0.1 0.3-0.1l0.2 0.9q-0.2 0.1-0.4 0.1-0.2 0.1-0.5 0.1-0.2 0.1-0.5 0.1-0.3 0-0.5 0-0.5 0-0.9-0.1-0.4-0.1-0.7-0.4-0.3-0.3-0.5-0.7-0.2-0.5-0.2-1.1v-3.8h-1.8v-0.9l1.8-0.1v-1.6zm-29.3 27.2q0-0.3-0.1-0.4-0.1-0.2-0.3-0.3-0.2-0.2-0.5-0.3-0.4-0.1-0.8-0.2-0.6-0.1-1.1-0.3-0.5-0.2-0.9-0.4-0.3-0.2-0.5-0.6-0.2-0.3-0.2-0.7 0-0.5 0.2-0.8 0.2-0.4 0.5-0.7 0.4-0.2 0.9-0.4 0.4-0.2 1-0.2 0.7 0 1.2 0.2 0.5 0.2 0.9 0.4 0.3 0.3 0.5 0.7 0.2 0.4 0.2 0.9h-1.1q0-0.2-0.2-0.4-0.1-0.3-0.3-0.4-0.2-0.2-0.5-0.3-0.3-0.1-0.6-0.1-0.4 0-0.7 0.1-0.3 0.1-0.5 0.2-0.2 0.2-0.3 0.3 0 0.2 0 0.4 0 0.2 0 0.4 0.1 0.2 0.3 0.3 0.2 0.1 0.5 0.2 0.3 0.1 0.8 0.2 0.7 0.1 1.2 0.3 0.5 0.2 0.8 0.4 0.4 0.3 0.6 0.6 0.1 0.3 0.1 0.8 0.1 0.4-0.1 0.8-0.2 0.4-0.6 0.7-0.4 0.2-0.9 0.4-0.5 0.1-1.1 0.1-0.7 0-1.3-0.1-0.5-0.2-0.9-0.5-0.4-0.4-0.6-0.8-0.2-0.4-0.2-0.8h1.2q0 0.3 0.2 0.6 0.1 0.2 0.4 0.4 0.2 0.1 0.6 0.2 0.3 0.1 0.6 0.1 0.7 0 1.1-0.3 0.5-0.3 0.5-0.7zm7.7-5.3q0.2 0 0.3 0 0.2 0 0.4 0 0.1 0.1 0.3 0.1 0.1 0 0.2 0.1l-0.1 1.1q-0.4-0.1-0.7-0.1-0.3 0-0.6 0-0.9 0-1.4 0.4-0.5 0.3-0.7 1v4.5h-1.2v-7h1.1v1.1q0.5-0.5 1-0.9 0.6-0.3 1.4-0.3zm6.3 6.2q0.4 0 0.7-0.1 0.3-0.1 0.5-0.3 0.2-0.2 0.4-0.4 0.1-0.3 0.1-0.5h1.1q0 0.4-0.2 0.8-0.2 0.5-0.6 0.8-0.4 0.3-0.9 0.5-0.5 0.2-1 0.2-0.8 0-1.4-0.3-0.6-0.3-1-0.7-0.4-0.5-0.6-1.2-0.2-0.6-0.2-1.3v-0.2q0-0.7 0.1-1.4 0.2-0.6 0.6-1.1 0.4-0.5 1-0.7 0.6-0.3 1.4-0.3 0.6 0 1.1 0.2 0.5 0.2 0.9 0.5 0.4 0.3 0.6 0.8 0.2 0.5 0.2 1h-1.1q0-0.3-0.2-0.6-0.1-0.3-0.3-0.5-0.2-0.2-0.6-0.3-0.3-0.2-0.6-0.2-0.6 0-1 0.3-0.3 0.2-0.5 0.6-0.3 0.3-0.4 0.8-0.1 0.4 0 0.9v0.2q0 0.5 0.1 0.9 0.1 0.5 0.3 0.8 0.2 0.4 0.6 0.6 0.4 0.2 0.9 0.2zm10.6-4.2h-5.7v-1h5.7zm0 2.6l-5.7 0.1v-1.1h5.7zm4.2-6.8l-0.1 2.3h-0.8l-0.1-2.2v-0.8h1zm2.3 0l-0.1 2.3h-0.9v-2.2-0.8l1-0.1zm4.7 3.3q0.3-0.6 0.9-0.9 0.5-0.3 1.2-0.3 0.5 0 1 0.2 0.4 0.1 0.7 0.5 0.3 0.3 0.5 0.8 0.2 0.5 0.2 1.2l0.1 4.4h-1.2l-0.1-4.4q0-0.8-0.4-1.3-0.4-0.4-1.2-0.4-0.5 0-1 0.3-0.5 0.3-0.7 0.8v5h-1.2l-0.1-9.9h1.2zm9.5-2.7v1.7h2.6v0.9h-2.6v3.8q0 0.4 0.1 0.6 0.1 0.3 0.3 0.5 0.2 0.1 0.4 0.2 0.3 0 0.5 0 0.2 0 0.4 0 0.2 0 0.4 0 0.2-0.1 0.4-0.1 0.2 0 0.3-0.1l0.1 0.9q-0.1 0.1-0.3 0.1-0.2 0.1-0.5 0.1-0.2 0.1-0.5 0.1-0.3 0-0.5 0-0.5 0-0.9-0.1-0.4-0.1-0.7-0.4-0.3-0.3-0.5-0.7-0.2-0.5-0.2-1.1v-3.8h-1.8v-0.9h1.8v-1.7zm7.8 0v1.6h2.7v0.9l-2.6 0.1v3.7q0 0.4 0.1 0.7 0.1 0.3 0.3 0.4 0.2 0.2 0.4 0.3 0.2 0 0.5 0 0.2 0 0.4 0 0.2 0 0.4-0.1 0.2 0 0.4 0 0.1-0.1 0.2-0.1l0.2 0.8q-0.1 0.1-0.3 0.2-0.2 0.1-0.5 0.1-0.2 0.1-0.5 0.1-0.3 0-0.6 0-0.4 0-0.8-0.1-0.4-0.1-0.7-0.4-0.3-0.3-0.5-0.8-0.2-0.4-0.2-1.1v-3.7h-1.8l-0.1-1h1.9l-0.1-1.6zm11 5.2q0 0.7-0.2 1.4-0.1 0.6-0.5 1.1-0.3 0.5-0.8 0.7-0.5 0.3-1.2 0.3-0.6 0-1.1-0.2-0.5-0.2-0.8-0.6v3.4h-1.2l-0.1-9.7h1.1l0.1 0.8q0.3-0.5 0.8-0.7 0.5-0.2 1.1-0.2 0.7 0 1.2 0.2 0.5 0.3 0.9 0.8 0.3 0.4 0.5 1.1 0.2 0.6 0.2 1.4zm-1.2-0.1q0-0.5-0.1-1-0.1-0.4-0.4-0.8-0.2-0.3-0.6-0.5-0.3-0.2-0.8-0.2-0.6 0-1 0.2-0.4 0.3-0.6 0.7l0.1 3.4q0.2 0.4 0.6 0.6 0.4 0.3 1 0.3 0.4 0 0.8-0.2 0.4-0.2 0.6-0.6 0.2-0.3 0.3-0.8 0.1-0.5 0.1-1zm7.8 1.7q0-0.2 0-0.4-0.1-0.2-0.3-0.3-0.2-0.1-0.6-0.3-0.3-0.1-0.8-0.2-0.6-0.1-1.1-0.3-0.4-0.1-0.8-0.4-0.4-0.2-0.5-0.5-0.2-0.4-0.2-0.8-0.1-0.4 0.1-0.8 0.2-0.4 0.6-0.6 0.3-0.3 0.8-0.5 0.5-0.1 1.1-0.1 0.7 0 1.2 0.1 0.5 0.2 0.9 0.5 0.3 0.3 0.5 0.7 0.2 0.4 0.2 0.8h-1.2q0-0.2-0.1-0.4-0.1-0.2-0.3-0.4-0.2-0.2-0.5-0.3-0.3-0.1-0.7-0.1-0.3 0-0.6 0.1-0.3 0.1-0.5 0.2-0.2 0.2-0.3 0.4-0.1 0.2-0.1 0.4 0 0.2 0.1 0.3 0.1 0.2 0.3 0.3 0.2 0.1 0.5 0.2 0.3 0.2 0.8 0.2 0.6 0.2 1.1 0.4 0.6 0.1 0.9 0.4 0.3 0.2 0.5 0.6 0.2 0.3 0.2 0.7 0 0.5-0.2 0.9-0.2 0.3-0.5 0.6-0.4 0.3-0.9 0.4-0.5 0.2-1.2 0.2-0.7 0-1.2-0.2-0.6-0.2-1-0.5-0.3-0.3-0.5-0.7-0.2-0.4-0.3-0.9h1.2q0.1 0.4 0.2 0.6 0.2 0.3 0.5 0.4 0.2 0.2 0.5 0.3 0.3 0 0.6 0 0.8 0 1.2-0.3 0.4-0.2 0.4-0.7zm5.7 1.1q0-0.2 0.1-0.4 0-0.2 0.1-0.3 0.1-0.1 0.3-0.2 0.2-0.1 0.4-0.1 0.2 0 0.4 0.1 0.2 0.1 0.3 0.2 0.1 0.1 0.2 0.3 0.1 0.2 0.1 0.3 0 0.2-0.1 0.4 0 0.2-0.2 0.3-0.1 0.1-0.3 0.2-0.1 0-0.4 0-0.2 0-0.4 0-0.1-0.1-0.3-0.2-0.1-0.1-0.1-0.3-0.1-0.2-0.1-0.3zm-0.1-5.7q0-0.2 0.1-0.3 0.1-0.2 0.2-0.3 0.1-0.2 0.3-0.2 0.1-0.1 0.4-0.1 0.2 0 0.4 0.1 0.1 0 0.3 0.2 0.1 0.1 0.1 0.2 0.1 0.2 0.1 0.4 0 0.2 0 0.4-0.1 0.1-0.2 0.2-0.1 0.2-0.3 0.2-0.2 0.1-0.4 0.1-0.2 0-0.4-0.1-0.2 0-0.3-0.1-0.1-0.2-0.2-0.3-0.1-0.2-0.1-0.4zm7.2 7.2h-1.1l3.8-10.2h1.1zm7.8 0h-1l3.8-10.2h1zm6.4-10.7h3.6v8.8h2.3v1l-5.8 0.1v-1.1h2.4l-0.1-7.8h-2.4zm7.4 6.3q0-0.7 0.2-1.4 0.3-0.6 0.7-1.1 0.4-0.5 0.9-0.7 0.6-0.3 1.4-0.3 0.7 0 1.3 0.2 0.6 0.3 1 0.8 0.4 0.5 0.6 1.1 0.2 0.7 0.2 1.4v0.2q0 0.7-0.2 1.4-0.2 0.6-0.6 1.1-0.4 0.5-1 0.7-0.5 0.3-1.3 0.3-0.7 0-1.3-0.3-0.6-0.2-1-0.7-0.4-0.5-0.6-1.1-0.3-0.7-0.3-1.4zm1.2 0.1q0 0.5 0.2 1 0.1 0.5 0.3 0.8 0.3 0.4 0.7 0.6 0.3 0.2 0.8 0.2 0.5 0 0.9-0.2 0.3-0.2 0.6-0.6 0.2-0.4 0.3-0.8 0.2-0.5 0.2-1v-0.1q0-0.6-0.2-1-0.1-0.5-0.4-0.8-0.2-0.4-0.6-0.6-0.3-0.2-0.8-0.2-0.5 0-0.9 0.2-0.4 0.2-0.6 0.6-0.2 0.3-0.4 0.8-0.1 0.5-0.1 1zm11.6-3.8q0.1 0 0.3 0.1 0.2 0 0.4 0 0.1 0 0.3 0 0.1 0.1 0.2 0.1l-0.2 1.2q-0.3-0.1-0.6-0.1-0.3-0.1-0.7-0.1-0.8 0-1.3 0.4-0.5 0.4-0.8 1.1l0.1 4.4h-1.2l-0.1-6.9h1.1l0.1 1.1q0.4-0.6 1-0.9 0.6-0.4 1.4-0.4zm6.4 7.2q-0.7 0-1.3-0.2-0.6-0.3-1.1-0.7-0.4-0.5-0.7-1.1-0.2-0.6-0.2-1.3v-0.3q0-0.8 0.2-1.5 0.3-0.7 0.7-1.1 0.5-0.5 1-0.7 0.6-0.3 1.2-0.3 0.8 0 1.3 0.3 0.6 0.2 1 0.7 0.3 0.5 0.5 1.1 0.2 0.6 0.2 1.3v0.6h-4.9q0 0.5 0.2 0.9 0.1 0.4 0.4 0.7 0.3 0.3 0.7 0.5 0.4 0.2 0.9 0.2 0.6 0 1.1-0.3 0.5-0.3 0.8-0.7l0.7 0.6q-0.1 0.3-0.4 0.5-0.2 0.2-0.6 0.4-0.3 0.2-0.8 0.3-0.4 0.1-0.9 0.1zm-0.2-6.2q-0.3 0-0.7 0.1-0.3 0.2-0.5 0.4-0.3 0.3-0.5 0.6-0.1 0.4-0.2 0.9h3.7v-0.1q0-0.4-0.1-0.7-0.1-0.3-0.3-0.6-0.3-0.3-0.6-0.4-0.3-0.2-0.8-0.2zm5.5-0.9l0.1 0.7q0.2-0.4 0.5-0.6 0.4-0.2 0.8-0.2 1 0 1.3 0.7 0.2-0.3 0.6-0.5 0.3-0.2 0.8-0.2 0.7 0 1.2 0.5 0.4 0.4 0.4 1.4v5.2h-1.1l-0.1-5.2q0-0.9-0.8-0.9-0.2 0-0.3 0.1-0.2 0-0.3 0.1-0.1 0.1-0.1 0.3-0.1 0.1-0.1 0.2v5.4h-1.1v-5.2q0-0.5-0.2-0.7-0.2-0.2-0.6-0.2-0.4 0-0.6 0.2-0.2 0.1-0.3 0.4v5.5h-1.1v-7zm7.5 0h3.5l0.1 5.9h2.2v1.1h-5.8v-1.1h2.4v-4.9h-2.4zm2.2-1.8q0-0.3 0.2-0.5 0.1-0.2 0.5-0.2 0.3 0 0.5 0.2 0.2 0.2 0.2 0.5 0 0.3-0.2 0.5-0.1 0.2-0.5 0.2-0.4 0-0.5-0.2-0.2-0.2-0.2-0.5zm11.4 5.4q0 0.7-0.2 1.4-0.2 0.6-0.5 1.1-0.4 0.5-0.9 0.7-0.5 0.3-1.1 0.3-0.7 0-1.2-0.2-0.4-0.2-0.8-0.6v3.4h-1.2v-9.7h1.1v0.8q0.4-0.5 0.9-0.7 0.5-0.2 1.1-0.2 0.7 0 1.2 0.2 0.5 0.3 0.8 0.8 0.4 0.4 0.6 1.1 0.2 0.6 0.2 1.4zm-1.2-0.1q0-0.5-0.1-1-0.2-0.4-0.4-0.8-0.2-0.3-0.6-0.5-0.3-0.2-0.8-0.2-0.6 0-1 0.2-0.4 0.3-0.6 0.7v3.4q0.2 0.4 0.6 0.6 0.4 0.3 1 0.3 0.5 0 0.8-0.2 0.4-0.2 0.6-0.6 0.3-0.3 0.4-0.8 0.1-0.5 0.1-1zm7.8 1.7q0-0.2-0.1-0.4-0.1-0.2-0.3-0.3-0.2-0.1-0.5-0.3-0.3-0.1-0.8-0.2-0.6-0.1-1.1-0.3-0.5-0.1-0.8-0.4-0.4-0.2-0.6-0.5-0.2-0.4-0.2-0.8 0-0.4 0.2-0.8 0.2-0.4 0.6-0.6 0.3-0.3 0.8-0.5 0.5-0.1 1.1-0.2 0.7 0 1.2 0.2 0.5 0.2 0.9 0.5 0.3 0.3 0.5 0.7 0.2 0.4 0.2 0.8h-1.2q0-0.2-0.1-0.4-0.1-0.2-0.3-0.4-0.2-0.2-0.5-0.3-0.3-0.1-0.7-0.1-0.3 0-0.6 0.1-0.3 0.1-0.5 0.2-0.2 0.2-0.3 0.4-0.1 0.2-0.1 0.4 0 0.2 0.1 0.3 0.1 0.2 0.3 0.3 0.2 0.1 0.5 0.2 0.3 0.1 0.8 0.2 0.6 0.2 1.1 0.4 0.5 0.1 0.9 0.4 0.3 0.2 0.5 0.5 0.2 0.4 0.2 0.8 0 0.5-0.2 0.9-0.2 0.3-0.6 0.6-0.4 0.3-0.9 0.4-0.5 0.2-1.1 0.2-0.7 0-1.3-0.2-0.5-0.2-0.9-0.5-0.4-0.3-0.6-0.7-0.2-0.4-0.2-0.9h1.2q0 0.4 0.2 0.6 0.2 0.3 0.4 0.4 0.3 0.2 0.6 0.2 0.3 0.1 0.6 0.1 0.7 0 1.2-0.3 0.4-0.2 0.4-0.7zm7.8 0.9q-0.4 0.5-0.9 0.8-0.5 0.2-1.2 0.3-0.5 0-1-0.2-0.4-0.2-0.7-0.5-0.3-0.4-0.5-1-0.2-0.5-0.2-1.3v-4.1h1.2v4.1q0 0.6 0.1 1 0.1 0.3 0.3 0.6 0.2 0.2 0.4 0.3 0.3 0 0.6 0 0.7 0 1.2-0.3 0.4-0.3 0.6-0.8v-5h1.2v7h-1zm3.9-6v0.6q0.2-0.3 0.6-0.5 0.3-0.2 0.8-0.2 0.9 0 1.3 0.7 0.2-0.3 0.5-0.5 0.3-0.2 0.8-0.3 0.8 0 1.2 0.5 0.4 0.5 0.4 1.4v5.2h-1.1v-5.2q0-0.8-0.8-0.8-0.2 0-0.4 0-0.1 0.1-0.2 0.2-0.1 0.1-0.2 0.2-0.1 0.1-0.1 0.3v5.4h-1.1v-5.3q0-0.4-0.2-0.6-0.2-0.2-0.6-0.2-0.4 0-0.6 0.1-0.2 0.2-0.3 0.4l0.1 5.6h-1.2v-7zm9.4 6.2q0-0.2 0.1-0.4 0.1-0.2 0.2-0.3 0.1-0.1 0.3-0.2 0.1-0.1 0.4-0.1 0.2 0 0.4 0.1 0.2 0.1 0.3 0.2 0.1 0.1 0.1 0.3 0.1 0.2 0.1 0.4 0 0.1 0 0.3-0.1 0.2-0.2 0.3-0.1 0.1-0.3 0.2-0.2 0.1-0.4 0.1-0.3 0-0.4-0.1-0.2-0.1-0.3-0.2-0.1-0.1-0.2-0.3-0.1-0.2-0.1-0.3zm8.8-0.1q0.3 0 0.6-0.1 0.4-0.1 0.6-0.3 0.2-0.2 0.4-0.5 0.1-0.2 0.1-0.5h1.1q0 0.5-0.2 0.9-0.2 0.4-0.6 0.7-0.4 0.3-0.9 0.5-0.5 0.2-1.1 0.2-0.8 0-1.4-0.2-0.5-0.3-0.9-0.8-0.4-0.5-0.6-1.1-0.2-0.6-0.2-1.3v-0.3q0-0.7 0.2-1.3 0.1-0.7 0.5-1.1 0.4-0.5 1-0.8 0.6-0.3 1.4-0.3 0.6 0 1.1 0.2 0.6 0.2 0.9 0.5 0.4 0.4 0.6 0.8 0.2 0.5 0.2 1h-1.1q0-0.3-0.1-0.6-0.2-0.3-0.4-0.5-0.2-0.2-0.5-0.3-0.3-0.1-0.7-0.1-0.5 0-0.9 0.2-0.4 0.2-0.6 0.6-0.3 0.3-0.4 0.8-0.1 0.4-0.1 0.9v0.3q0.1 0.4 0.1 0.9 0.2 0.4 0.4 0.8 0.2 0.3 0.6 0.6 0.4 0.2 0.9 0.2zm4.6-2.8q0-0.7 0.2-1.4 0.2-0.6 0.6-1.1 0.5-0.5 1-0.7 0.6-0.3 1.4-0.3 0.7 0 1.3 0.2 0.6 0.3 1 0.8 0.4 0.5 0.6 1.1 0.2 0.7 0.2 1.4v0.2q0 0.7-0.2 1.4-0.2 0.6-0.6 1.1-0.4 0.5-1 0.7-0.6 0.3-1.3 0.3-0.8 0-1.3-0.3-0.6-0.2-1-0.7-0.4-0.5-0.7-1.1-0.2-0.7-0.2-1.4zm1.2 0.1q0 0.5 0.1 1 0.1 0.5 0.4 0.8 0.2 0.4 0.6 0.6 0.4 0.2 0.9 0.2 0.5 0 0.8-0.2 0.4-0.2 0.7-0.6 0.2-0.3 0.3-0.8 0.1-0.5 0.1-1v-0.1q0-0.5-0.1-1-0.1-0.5-0.4-0.8-0.2-0.4-0.6-0.6-0.3-0.2-0.8-0.2-0.5 0-0.9 0.2-0.4 0.2-0.6 0.6-0.3 0.3-0.4 0.8-0.1 0.5-0.1 1zm7.6-3.6v0.6q0.2-0.3 0.6-0.5 0.3-0.2 0.8-0.3 1 0 1.3 0.8 0.2-0.3 0.5-0.5 0.4-0.3 0.8-0.3 0.8 0 1.2 0.5 0.4 0.5 0.4 1.4v5.2h-1.1v-5.2q0-0.9-0.8-0.8-0.2 0-0.4 0-0.1 0.1-0.2 0.2-0.1 0.1-0.2 0.2-0.1 0.1-0.1 0.3v5.3l-1.1 0.1v-5.3q0-0.4-0.2-0.6-0.2-0.2-0.6-0.2-0.3 0-0.6 0.1-0.2 0.2-0.3 0.4l0.1 5.6h-1.2v-7zm8.9 7.7h-1l3.9-10.2h1zm10.9-0.8q-0.1-0.1-0.1-0.3 0-0.3-0.1-0.5-0.1 0.2-0.4 0.4-0.2 0.1-0.5 0.3-0.2 0.1-0.5 0.1-0.3 0.1-0.7 0.1-0.5 0-1-0.1-0.4-0.2-0.7-0.5-0.3-0.2-0.5-0.6-0.2-0.4-0.2-0.8 0-0.6 0.3-1 0.2-0.5 0.6-0.8 0.4-0.2 1-0.4 0.6-0.1 1.3-0.1h1.3v-0.6q0-0.3-0.1-0.6-0.1-0.2-0.3-0.4-0.2-0.2-0.5-0.3-0.4-0.1-0.7-0.1-0.4 0-0.7 0.1-0.2 0.1-0.4 0.3-0.2 0.1-0.3 0.3-0.1 0.2-0.1 0.5h-1.2q0-0.4 0.2-0.8 0.2-0.4 0.5-0.6 0.4-0.3 0.9-0.5 0.5-0.2 1.1-0.2 0.6 0 1.1 0.1 0.5 0.2 0.9 0.5 0.4 0.3 0.6 0.7 0.2 0.4 0.2 1v3.3q0 0.3 0.1 0.7 0 0.4 0.2 0.7v0.1zm-2.1-0.9q0.3 0 0.6-0.1 0.3-0.1 0.5-0.3 0.3-0.1 0.5-0.3 0.2-0.2 0.3-0.4v-1.4h-1.1q-1.1 0-1.7 0.3-0.5 0.3-0.5 1 0 0.3 0 0.5 0.1 0.2 0.3 0.3 0.2 0.2 0.4 0.3 0.3 0.1 0.7 0.1zm11.2-2.6q0 0.8-0.1 1.4-0.2 0.7-0.6 1.2-0.3 0.4-0.8 0.7-0.5 0.3-1.2 0.3-0.6 0-1.1-0.2-0.5-0.2-0.8-0.6v3.3l-1.2 0.1v-9.7h1.1v0.7q0.4-0.4 0.8-0.6 0.5-0.2 1.2-0.2 0.7 0 1.2 0.2 0.5 0.3 0.8 0.7 0.4 0.5 0.6 1.2 0.1 0.6 0.1 1.4zm-1.1-0.1q0-0.5-0.2-1-0.1-0.5-0.3-0.8-0.2-0.4-0.6-0.6-0.4-0.2-0.9-0.2-0.5 0-0.9 0.3-0.4 0.3-0.6 0.7v3.4q0.2 0.4 0.6 0.6 0.4 0.3 1 0.3 0.5 0 0.8-0.2 0.4-0.2 0.6-0.6 0.2-0.4 0.3-0.8 0.2-0.5 0.2-1zm3.4-3.4h3.5v5.9h2.3v1h-5.8v-1h2.3v-4.9h-2.3zm2.2-1.8q0-0.3 0.1-0.5 0.2-0.2 0.6-0.2 0.3 0 0.5 0.2 0.2 0.2 0.2 0.5 0 0.2-0.2 0.4-0.2 0.2-0.5 0.2-0.4 0-0.6-0.2-0.1-0.1-0.1-0.4zm7.6 8q0-0.2 0-0.4 0.1-0.2 0.2-0.3 0.1-0.1 0.3-0.2 0.2-0.1 0.4-0.1 0.2 0 0.4 0.1 0.2 0.1 0.3 0.2 0.1 0.1 0.2 0.3 0 0.2 0 0.4 0 0.2 0 0.3-0.1 0.2-0.2 0.3-0.1 0.1-0.3 0.2-0.2 0.1-0.4 0.1-0.2 0-0.4-0.1-0.2-0.1-0.3-0.2-0.1-0.1-0.2-0.3 0-0.1 0-0.3zm6.6-6.3h3.5v7.1q0 0.6-0.2 1.1-0.2 0.6-0.5 0.9-0.4 0.4-0.9 0.5-0.5 0.2-1.1 0.2-0.4 0-0.7 0-0.3 0-0.7-0.1l0.1-0.9q0.1 0 0.3 0 0.2 0 0.3 0 0.2 0 0.3 0 0.2 0 0.3 0 0.3 0 0.6-0.1 0.3 0 0.5-0.3 0.3-0.2 0.4-0.5 0.1-0.3 0.1-0.8v-6h-2.3zm2.1-1.9q0-0.3 0.2-0.5 0.2-0.2 0.6-0.2 0.3 0 0.5 0.2 0.2 0.2 0.2 0.5 0 0.3-0.2 0.5-0.2 0.2-0.5 0.2-0.4 0-0.6-0.2-0.2-0.2-0.2-0.5zm9.6 7q0-0.2-0.1-0.4-0.1-0.2-0.3-0.3-0.2-0.2-0.5-0.3-0.3-0.1-0.8-0.2-0.6-0.1-1.1-0.3-0.5-0.2-0.8-0.4-0.4-0.2-0.6-0.6-0.2-0.3-0.2-0.7 0-0.5 0.2-0.8 0.2-0.4 0.6-0.7 0.4-0.3 0.9-0.4 0.5-0.2 1.1-0.2 0.6 0 1.1 0.2 0.5 0.1 0.9 0.4 0.3 0.3 0.5 0.7 0.2 0.4 0.2 0.9h-1.2q0-0.2-0.1-0.4-0.1-0.3-0.3-0.4-0.2-0.2-0.5-0.3-0.3-0.1-0.6-0.1-0.4 0-0.7 0.1-0.3 0.1-0.5 0.2-0.2 0.2-0.3 0.3-0.1 0.2-0.1 0.4 0 0.2 0.1 0.4 0.1 0.2 0.3 0.3 0.2 0.1 0.5 0.2 0.3 0.1 0.8 0.2 0.6 0.2 1.1 0.3 0.5 0.2 0.9 0.5 0.3 0.2 0.5 0.5 0.2 0.4 0.2 0.8 0 0.4-0.2 0.8-0.2 0.4-0.6 0.7-0.4 0.3-0.9 0.4-0.5 0.2-1.1 0.2-0.7 0-1.3-0.2-0.5-0.2-0.9-0.5-0.4-0.3-0.6-0.8-0.2-0.4-0.2-0.8h1.2q0 0.4 0.2 0.6 0.2 0.3 0.4 0.4 0.3 0.2 0.6 0.2 0.3 0.1 0.6 0.1 0.7 0 1.2-0.3 0.4-0.3 0.4-0.7zm5.4-7.4l-0.1 2.4h-0.8v-2.3-0.8h0.9zm2.3 0l-0.1 2.4h-0.8v-2.3-0.8h0.9zm-272.2 26.8q0-0.8 0.1-1.4 0.2-0.7 0.6-1.1 0.3-0.5 0.8-0.8 0.5-0.2 1.2-0.2 0.6 0 1.1 0.2 0.4 0.2 0.8 0.6l-0.1-3.6h1.2l0.1 9.8h-1l-0.1-0.7q-0.3 0.4-0.8 0.6-0.5 0.3-1.1 0.3-0.7 0-1.2-0.3-0.5-0.3-0.8-0.7-0.4-0.5-0.6-1.2-0.2-0.6-0.2-1.3zm1.2 0.1q0 0.5 0.1 0.9 0.1 0.5 0.3 0.8 0.3 0.4 0.6 0.6 0.4 0.2 0.9 0.2 0.3 0 0.5-0.1 0.2 0 0.4-0.2 0.2-0.1 0.4-0.3 0.1-0.2 0.2-0.4v-3.2q-0.2-0.4-0.6-0.7-0.4-0.3-1-0.3-0.5 0-0.9 0.2-0.3 0.2-0.5 0.6-0.3 0.3-0.4 0.8-0.1 0.4 0 1zm11.4 3.3q-0.1-0.1-0.1-0.3 0-0.2-0.1-0.4-0.1 0.1-0.4 0.3-0.2 0.2-0.4 0.3-0.3 0.1-0.6 0.2-0.3 0-0.6 0-0.6 0-1-0.1-0.5-0.2-0.8-0.4-0.3-0.3-0.5-0.7-0.1-0.4-0.2-0.8 0-0.6 0.3-1 0.2-0.4 0.6-0.7 0.4-0.3 1-0.4 0.6-0.2 1.3-0.2h1.3v-0.5q0-0.4-0.2-0.6-0.1-0.3-0.3-0.4-0.2-0.2-0.5-0.3-0.3-0.1-0.7-0.1-0.3 0-0.6 0.1-0.3 0.1-0.5 0.2-0.2 0.2-0.3 0.4-0.1 0.2-0.1 0.4h-1.2q0-0.4 0.2-0.7 0.2-0.4 0.6-0.7 0.3-0.3 0.8-0.5 0.5-0.2 1.2-0.2 0.5 0 1.1 0.2 0.5 0.1 0.8 0.4 0.4 0.3 0.6 0.7 0.2 0.5 0.2 1.1l0.1 3.2q0 0.3 0.1 0.7 0 0.4 0.1 0.7l0.1 0.1zm-2.1-0.9q0.3 0 0.6-0.1 0.3-0.1 0.5-0.2 0.3-0.2 0.5-0.4 0.1-0.2 0.2-0.4v-1.4h-1.1q-1 0-1.6 0.4-0.6 0.3-0.5 0.9 0 0.3 0 0.5 0.1 0.2 0.3 0.4 0.2 0.1 0.4 0.2 0.3 0.1 0.7 0.1zm8-7.7l0.1 1.6h2.6v1h-2.6v3.7q0 0.4 0.1 0.7 0.1 0.3 0.3 0.4 0.2 0.2 0.4 0.2 0.3 0.1 0.5 0.1 0.2 0 0.4 0 0.2 0 0.4-0.1 0.2 0 0.4 0 0.2-0.1 0.3-0.1l0.1 0.8q-0.1 0.1-0.3 0.2-0.2 0.1-0.5 0.1-0.2 0.1-0.5 0.1-0.3 0-0.5 0-0.5 0-0.9-0.1-0.4-0.1-0.7-0.4-0.3-0.3-0.5-0.8-0.2-0.4-0.2-1.1v-3.7h-1.8v-0.9l1.8-0.1v-1.6zm9.7 8.6q-0.1-0.2-0.2-0.4 0-0.2 0-0.4-0.2 0.2-0.4 0.3-0.2 0.2-0.5 0.3-0.3 0.2-0.6 0.2-0.3 0.1-0.6 0.1-0.5 0-1-0.2-0.4-0.1-0.8-0.4-0.3-0.3-0.4-0.6-0.2-0.4-0.2-0.9 0-0.5 0.2-1 0.2-0.4 0.6-0.7 0.4-0.3 1-0.4 0.6-0.1 1.3-0.1h1.3v-0.6q0-0.3-0.1-0.6-0.1-0.2-0.4-0.4-0.2-0.2-0.5-0.3-0.3-0.1-0.6 0-0.4 0-0.7 0-0.3 0.1-0.4 0.3-0.2 0.1-0.3 0.3-0.1 0.2-0.1 0.5h-1.2q0-0.4 0.2-0.8 0.1-0.4 0.5-0.6 0.3-0.3 0.9-0.5 0.5-0.2 1.1-0.2 0.6 0 1.1 0.1 0.5 0.2 0.9 0.5 0.3 0.3 0.6 0.7 0.2 0.4 0.2 1v3.2q0 0.4 0.1 0.8 0.1 0.4 0.2 0.7v0.1zm-2.1-0.9q0.3 0 0.6-0.1 0.3-0.1 0.6-0.3 0.2-0.1 0.4-0.3 0.2-0.2 0.3-0.4v-1.4h-1.1q-1.1 0-1.6 0.3-0.6 0.3-0.6 1 0 0.2 0.1 0.4 0.1 0.3 0.2 0.4 0.2 0.2 0.5 0.3 0.2 0.1 0.6 0.1zm10.5-2.8h-4.9v-0.9h4.9zm5.7 2.7q0.3 0 0.6-0.1 0.3-0.1 0.5-0.3 0.3-0.2 0.4-0.4 0.1-0.3 0.1-0.6h1.2q0 0.5-0.3 0.9-0.2 0.4-0.6 0.8-0.4 0.3-0.9 0.5-0.5 0.2-1 0.2-0.8 0-1.4-0.3-0.6-0.3-1-0.8-0.4-0.4-0.6-1.1-0.2-0.6-0.2-1.3v-0.3q0-0.6 0.2-1.3 0.2-0.6 0.5-1.1 0.4-0.5 1-0.8 0.6-0.2 1.4-0.2 0.6 0 1.1 0.2 0.5 0.1 0.9 0.5 0.4 0.3 0.6 0.8 0.2 0.4 0.2 1h-1.1q0-0.3-0.1-0.6-0.2-0.3-0.4-0.5-0.2-0.2-0.5-0.3-0.3-0.2-0.7-0.2-0.5 0-0.9 0.3-0.4 0.2-0.6 0.5-0.2 0.4-0.3 0.8-0.1 0.5-0.1 0.9v0.3q0 0.5 0.1 0.9 0.1 0.5 0.3 0.8 0.3 0.4 0.6 0.6 0.4 0.2 1 0.2zm5-9l3.5-0.1 0.1 8.9h2.2l0.1 1h-5.8v-1h2.3l-0.1-7.8h-2.3zm7.9 2.9h3.5l0.1 5.9h2.2v1h-5.8v-1h2.4l-0.1-4.9h-2.3zm2.1-1.8q0-0.3 0.2-0.5 0.2-0.2 0.5-0.2 0.4 0 0.6 0.2 0.2 0.2 0.2 0.5 0 0.3-0.2 0.5-0.2 0.2-0.5 0.2-0.4 0-0.6-0.2-0.2-0.2-0.2-0.5zm8.7 8.9q-0.8 0-1.4-0.3-0.6-0.2-1-0.7-0.5-0.4-0.7-1-0.3-0.7-0.3-1.4v-0.3q0-0.8 0.3-1.5 0.2-0.6 0.7-1.1 0.4-0.5 1-0.7 0.5-0.2 1.1-0.2 0.8 0 1.3 0.2 0.6 0.3 1 0.7 0.4 0.5 0.5 1.1 0.2 0.6 0.2 1.4v0.5h-4.9q0 0.5 0.2 0.9 0.2 0.4 0.5 0.7 0.2 0.3 0.6 0.5 0.4 0.2 0.9 0.2 0.7 0 1.1-0.3 0.5-0.2 0.9-0.7l0.7 0.6q-0.2 0.3-0.4 0.5-0.3 0.3-0.6 0.4-0.4 0.2-0.8 0.3-0.4 0.2-0.9 0.2zm-0.3-6.3q-0.3 0-0.6 0.2-0.3 0.1-0.6 0.4-0.3 0.2-0.4 0.6-0.2 0.3-0.3 0.8h3.8v-0.1q-0.1-0.3-0.2-0.7-0.1-0.3-0.3-0.6-0.2-0.2-0.6-0.4-0.3-0.2-0.8-0.2zm6.1-0.8l0.1 1q0.3-0.6 0.9-0.9 0.5-0.3 1.2-0.3 0.5 0 1 0.2 0.4 0.1 0.7 0.5 0.4 0.3 0.5 0.8 0.2 0.5 0.2 1.2l0.1 4.4h-1.2l-0.1-4.4q0-0.4-0.1-0.8-0.1-0.3-0.3-0.5-0.2-0.2-0.5-0.3-0.3-0.1-0.6-0.1-0.6 0-1.1 0.3-0.4 0.3-0.7 0.8v5h-1.1l-0.1-6.9zm9.6-1.7v1.6h2.6v0.9l-2.6 0.1v3.7q0 0.4 0.1 0.7 0.2 0.3 0.3 0.4 0.2 0.2 0.4 0.2 0.3 0.1 0.5 0.1 0.2 0 0.4 0 0.2 0 0.4-0.1 0.2 0 0.4 0 0.2-0.1 0.3-0.1l0.2 0.8q-0.2 0.1-0.4 0.2-0.2 0.1-0.5 0.1-0.2 0.1-0.5 0.1-0.3 0-0.5 0-0.5 0-0.9-0.1-0.4-0.2-0.7-0.4-0.3-0.3-0.5-0.8-0.1-0.4-0.1-1.1l-0.1-3.7h-1.8v-1h1.8v-1.6zm10.3 5h-4.9v-1h4.9zm3.7-3.4l0.1 1q0.3-0.5 0.9-0.8 0.5-0.3 1.2-0.3 0.6 0 1 0.1 0.5 0.2 0.8 0.5 0.3 0.3 0.5 0.8 0.1 0.5 0.1 1.2l0.1 4.5h-1.2v-4.4q0-0.5-0.2-0.8-0.1-0.3-0.3-0.5-0.2-0.2-0.5-0.3-0.2-0.1-0.6-0.1-0.6 0-1.1 0.3-0.4 0.3-0.7 0.8l0.1 5h-1.2l-0.1-7zm11.4 6.9q0-0.1-0.1-0.3 0-0.2 0-0.4-0.2 0.2-0.5 0.3-0.2 0.2-0.4 0.3-0.3 0.1-0.6 0.2-0.3 0.1-0.6 0.1-0.6 0-1-0.2-0.5-0.1-0.8-0.4-0.3-0.3-0.5-0.7-0.1-0.3-0.1-0.8-0.1-0.5 0.2-1 0.2-0.4 0.6-0.7 0.4-0.3 1-0.4 0.6-0.2 1.3-0.2h1.3v-0.5q0-0.3-0.1-0.6-0.1-0.2-0.4-0.4-0.2-0.2-0.5-0.3-0.3-0.1-0.7-0.1-0.3 0-0.6 0.1-0.3 0.1-0.4 0.2-0.2 0.2-0.3 0.4-0.1 0.2-0.1 0.4h-1.2q0-0.4 0.2-0.7 0.1-0.4 0.5-0.7 0.3-0.3 0.8-0.5 0.6-0.1 1.2-0.1 0.6 0 1.1 0.1 0.5 0.1 0.9 0.4 0.3 0.3 0.6 0.8 0.2 0.4 0.2 1v3.2q0 0.4 0.1 0.8 0 0.3 0.2 0.6v0.1zm-2.1-0.9q0.3 0 0.6-0.1 0.3-0.1 0.6-0.2 0.2-0.1 0.4-0.3 0.2-0.2 0.3-0.4l-0.1-1.4h-1.1q-1 0-1.6 0.3-0.5 0.3-0.5 0.9 0 0.3 0.1 0.5 0 0.2 0.2 0.4 0.2 0.2 0.5 0.2 0.2 0.1 0.6 0.1zm5.9-6v0.6q0.2-0.3 0.6-0.6 0.3-0.2 0.8-0.2 0.9 0 1.3 0.8 0.2-0.4 0.5-0.6 0.3-0.2 0.8-0.2 0.8 0 1.2 0.5 0.4 0.5 0.4 1.4v5.2h-1.1v-5.2q0-0.9-0.8-0.9-0.2 0-0.4 0.1-0.1 0.1-0.2 0.2-0.1 0.1-0.2 0.2-0.1 0.1-0.1 0.3l0.1 5.3h-1.2v-5.2q0-0.4-0.2-0.6-0.2-0.3-0.6-0.3-0.4 0-0.6 0.2-0.2 0.1-0.3 0.4l0.1 5.5h-1.1l-0.1-6.9zm10.4 7q-0.7 0-1.3-0.2-0.6-0.3-1.1-0.7-0.4-0.5-0.6-1.1-0.3-0.6-0.3-1.3v-0.3q0-0.8 0.3-1.5 0.2-0.7 0.7-1.1 0.4-0.5 1-0.7 0.5-0.3 1.1-0.3 0.8 0 1.3 0.3 0.6 0.2 1 0.7 0.4 0.4 0.5 1.1 0.2 0.6 0.2 1.3v0.5l-4.9 0.1q0 0.4 0.2 0.9 0.1 0.4 0.4 0.7 0.3 0.3 0.7 0.5 0.4 0.1 0.9 0.1 0.6 0 1.1-0.2 0.5-0.3 0.8-0.7l0.8 0.6q-0.2 0.2-0.5 0.5-0.2 0.2-0.6 0.4-0.3 0.2-0.7 0.3-0.5 0.1-1 0.1zm-0.2-6.2q-0.3 0-0.6 0.1-0.4 0.2-0.6 0.4-0.3 0.3-0.4 0.6-0.2 0.4-0.3 0.9h3.7v-0.1q0-0.4-0.1-0.7-0.1-0.3-0.3-0.6-0.2-0.3-0.6-0.4-0.3-0.2-0.8-0.2zm10.7 1l-5.7 0.1v-1.1h5.7zm0 2.7h-5.7v-1l5.7-0.1zm4.3-6.8l-0.2 2.4h-0.8v-2.3-0.8h1zm2.2 0l-0.1 2.4h-0.8v-2.3-0.8h0.9zm6.3 4.5l2.1-4.7h1.3l-2.8 5.9v3.4l-1.1 0.1-0.1-3.5-2.9-5.9h1.3zm4.8 1.1q0-0.8 0.3-1.4 0.2-0.6 0.6-1.1 0.4-0.5 1-0.8 0.5-0.2 1.3-0.3 0.7 0 1.3 0.3 0.6 0.3 1 0.8 0.4 0.4 0.6 1.1 0.2 0.6 0.2 1.4v0.1q0 0.8-0.2 1.4-0.2 0.7-0.6 1.1-0.4 0.5-1 0.8-0.6 0.3-1.3 0.3-0.7 0-1.3-0.3-0.6-0.3-1-0.7-0.4-0.5-0.6-1.2-0.3-0.6-0.3-1.4zm1.2 0.2q0 0.5 0.2 1 0.1 0.4 0.3 0.8 0.3 0.3 0.6 0.5 0.4 0.2 0.9 0.2 0.5 0 0.9-0.2 0.3-0.2 0.6-0.5 0.2-0.4 0.3-0.8 0.2-0.5 0.2-1v-0.2q0-0.5-0.2-0.9-0.1-0.5-0.4-0.9-0.2-0.3-0.6-0.5-0.3-0.2-0.8-0.2-0.5 0-0.9 0.2-0.4 0.2-0.6 0.5-0.2 0.4-0.4 0.9-0.1 0.4-0.1 0.9zm11.6 2.4q-0.4 0.6-0.9 0.9-0.5 0.2-1.2 0.2-0.5 0-1-0.1-0.4-0.2-0.7-0.6-0.4-0.3-0.5-0.9-0.2-0.5-0.2-1.3v-4.1h1.2v4.1q0 0.6 0.1 0.9 0.1 0.4 0.2 0.6 0.2 0.3 0.5 0.3 0.2 0.1 0.6 0.1 0.7 0 1.1-0.3 0.5-0.3 0.7-0.8v-5h1.2v7h-1.1zm7.9-6.2q0.2 0 0.4 0.1 0.1 0 0.3 0 0.2 0 0.3 0 0.2 0.1 0.2 0.1l-0.1 1.2q-0.4-0.1-0.7-0.1-0.3-0.1-0.6-0.1-0.9 0-1.4 0.4-0.5 0.4-0.7 1.1v4.4h-1.2v-6.9h1.1l0.1 1.1q0.4-0.6 1-0.9 0.6-0.3 1.3-0.4zm17.3 4.3q-0.1 0.6-0.3 1.2-0.3 0.5-0.7 0.9-0.4 0.4-0.9 0.6-0.6 0.2-1.2 0.2-0.6 0-1.1-0.1-0.5-0.2-0.8-0.5-0.4-0.3-0.7-0.7-0.2-0.4-0.4-0.8-0.2-0.5-0.3-1-0.1-0.5-0.1-1v-1.3q0-0.6 0.1-1.1 0.1-0.5 0.3-0.9 0.1-0.5 0.4-0.9 0.3-0.4 0.6-0.7 0.4-0.3 0.9-0.4 0.4-0.2 1-0.2 0.7 0 1.3 0.2 0.5 0.2 0.9 0.6 0.4 0.4 0.7 1 0.2 0.5 0.3 1.2h-1.2q-0.1-0.4-0.2-0.8-0.1-0.4-0.4-0.6-0.2-0.3-0.6-0.5-0.3-0.1-0.8-0.1-0.4 0-0.7 0.1-0.3 0.1-0.6 0.4-0.2 0.2-0.4 0.5-0.1 0.4-0.2 0.7-0.1 0.4-0.2 0.7 0 0.4 0 0.8v1.3q0 0.3 0.1 0.7 0 0.4 0.1 0.7 0.1 0.4 0.3 0.7 0.1 0.3 0.3 0.5 0.3 0.3 0.6 0.4 0.3 0.2 0.8 0.2 0.4 0 0.8-0.2 0.3-0.1 0.5-0.4 0.3-0.3 0.4-0.6 0.2-0.4 0.2-0.8zm1.5-0.8q0-0.7 0.2-1.4 0.2-0.6 0.6-1.1 0.5-0.5 1-0.7 0.6-0.3 1.4-0.3 0.7 0 1.3 0.3 0.6 0.2 1 0.7 0.4 0.5 0.6 1.1 0.2 0.7 0.2 1.4v0.2q0 0.7-0.2 1.4-0.2 0.6-0.6 1.1-0.4 0.5-1 0.7-0.6 0.3-1.3 0.3-0.7 0-1.3-0.3-0.6-0.2-1-0.7-0.4-0.5-0.7-1.1-0.2-0.7-0.2-1.4zm1.2 0.1q0 0.5 0.1 1 0.2 0.5 0.4 0.8 0.2 0.4 0.6 0.6 0.4 0.2 0.9 0.2 0.5 0 0.8-0.2 0.4-0.2 0.7-0.6 0.2-0.3 0.3-0.8 0.1-0.5 0.1-1v-0.1q0-0.5-0.1-1-0.1-0.5-0.4-0.8-0.2-0.4-0.6-0.6-0.4-0.2-0.8-0.2-0.5 0-0.9 0.2-0.4 0.2-0.6 0.6-0.3 0.3-0.4 0.8-0.1 0.5-0.1 1zm7.6-3.6v0.6q0.2-0.3 0.6-0.5 0.3-0.2 0.8-0.2 0.9 0 1.3 0.7 0.2-0.3 0.5-0.5 0.3-0.2 0.8-0.2 0.8-0.1 1.2 0.4 0.4 0.5 0.4 1.4v5.2h-1.1v-5.2q0-0.8-0.8-0.8-0.2 0-0.4 0-0.1 0.1-0.2 0.2-0.1 0.1-0.2 0.2-0.1 0.1-0.1 0.3v5.3h-1.1v-5.2q0-0.4-0.2-0.6-0.2-0.2-0.6-0.2-0.4 0-0.6 0.1-0.2 0.2-0.3 0.4l0.1 5.6h-1.2v-7zm13.2 3.5q0 0.8-0.2 1.4-0.1 0.7-0.5 1.1-0.3 0.5-0.9 0.8-0.5 0.2-1.1 0.2-0.6 0.1-1.1-0.2-0.5-0.2-0.9-0.5v3.3h-1.1l-0.1-9.6h1.1l0.1 0.7q0.3-0.4 0.8-0.6 0.5-0.3 1.2-0.3 0.6 0 1.1 0.3 0.5 0.3 0.9 0.7 0.3 0.5 0.5 1.1 0.2 0.7 0.2 1.5zm-1.2-0.2q0-0.5-0.1-0.9-0.1-0.5-0.3-0.8-0.3-0.4-0.6-0.6-0.4-0.2-0.9-0.2-0.6 0-1 0.3-0.3 0.2-0.6 0.7v3.3q0.3 0.4 0.7 0.7 0.3 0.2 0.9 0.2 0.5 0 0.9-0.2 0.3-0.2 0.6-0.5 0.2-0.4 0.3-0.8 0.1-0.5 0.1-1zm7.8 3.5q-0.1-0.1-0.1-0.3-0.1-0.2-0.1-0.5-0.1 0.2-0.4 0.4-0.2 0.1-0.5 0.3-0.2 0.1-0.5 0.2-0.3 0-0.7 0-0.5 0-1-0.1-0.4-0.2-0.7-0.5-0.3-0.2-0.5-0.6-0.2-0.4-0.2-0.8 0-0.6 0.2-1 0.3-0.5 0.7-0.7 0.4-0.3 1-0.5 0.6-0.1 1.3-0.1h1.3v-0.6q0-0.3-0.1-0.5-0.1-0.3-0.3-0.5-0.3-0.1-0.6-0.2-0.3-0.1-0.6-0.1-0.4 0-0.7 0.1-0.3 0.1-0.4 0.2-0.2 0.1-0.3 0.4-0.1 0.2-0.1 0.4h-1.2q0-0.4 0.2-0.8 0.1-0.3 0.5-0.6 0.4-0.3 0.9-0.5 0.5-0.2 1.1-0.2 0.6 0 1.1 0.2 0.5 0.1 0.9 0.4 0.4 0.3 0.6 0.7 0.2 0.5 0.2 1v3.3q0 0.3 0.1 0.7 0 0.4 0.1 0.7v0.1zm-2.1-0.9q0.4 0 0.7-0.1 0.3-0.1 0.5-0.2 0.3-0.2 0.5-0.4 0.1-0.2 0.2-0.4v-1.4h-1.1q-1 0-1.6 0.3-0.6 0.3-0.6 1 0 0.3 0.1 0.5 0.1 0.2 0.3 0.4 0.2 0.1 0.4 0.2 0.3 0.1 0.6 0.1zm6.5-6.1l0.1 1q0.4-0.5 0.9-0.8 0.6-0.3 1.3-0.3 0.5 0 1 0.1 0.4 0.2 0.7 0.5 0.3 0.3 0.5 0.8 0.2 0.5 0.2 1.2v4.5h-1.2v-4.4q0-0.5-0.1-0.8-0.1-0.3-0.3-0.5-0.2-0.2-0.5-0.3-0.3-0.1-0.7-0.1-0.6 0-1 0.3-0.5 0.3-0.8 0.8l0.1 5h-1.2v-7zm9.3 4.5l0.3 0.8 2.2-5.3h1.3l-3.5 8q-0.1 0.3-0.3 0.6-0.2 0.3-0.5 0.6-0.3 0.2-0.6 0.4-0.4 0.2-0.8 0.2-0.1 0-0.2 0-0.1-0.1-0.2-0.1-0.1 0-0.2 0-0.1 0-0.2 0l0.2-1q0.1 0 0.1 0 0.1 0 0.2 0 0.1 0 0.2 0 0 0 0.1 0 0.2 0 0.4-0.1 0.2-0.1 0.4-0.3 0.1-0.2 0.2-0.4 0.2-0.2 0.2-0.4l0.5-0.9-3-6.6h1.3zm8.4-6.7l-0.1 2.3h-0.9v-2.2-0.8h1zm9.5 7.2q0-0.2-0.1-0.3-0.1-0.2-0.3-0.3-0.2-0.2-0.5-0.3-0.3-0.1-0.8-0.2-0.6-0.1-1.1-0.3-0.5-0.2-0.9-0.4-0.3-0.3-0.5-0.6-0.2-0.3-0.2-0.7 0-0.5 0.2-0.8 0.2-0.4 0.6-0.7 0.3-0.3 0.8-0.4 0.5-0.2 1.1-0.2 0.7 0 1.2 0.2 0.5 0.1 0.8 0.4 0.4 0.3 0.6 0.7 0.2 0.4 0.2 0.9h-1.2q0-0.3-0.1-0.5-0.1-0.2-0.3-0.3-0.2-0.2-0.5-0.3-0.3-0.1-0.7-0.1-0.4 0-0.7 0.1-0.2 0.1-0.4 0.2-0.2 0.1-0.3 0.3-0.1 0.2-0.1 0.4 0 0.2 0.1 0.4 0 0.1 0.2 0.3 0.2 0.1 0.5 0.2 0.4 0.1 0.8 0.2 0.7 0.1 1.2 0.3 0.5 0.2 0.8 0.4 0.4 0.3 0.6 0.6 0.2 0.3 0.2 0.8 0 0.4-0.3 0.8-0.2 0.4-0.5 0.7-0.4 0.2-0.9 0.4-0.5 0.1-1.2 0.1-0.7 0-1.2-0.2-0.6-0.1-1-0.5-0.3-0.3-0.5-0.7-0.2-0.4-0.2-0.8h1.2q0 0.3 0.1 0.6 0.2 0.2 0.5 0.4 0.2 0.1 0.5 0.2 0.3 0.1 0.6 0.1 0.8 0 1.2-0.3 0.5-0.3 0.5-0.8zm17 1.8h-1.2l-3.6-6.9-0.1 7h-1.2l0.1-9.4h1.2l3.6 7v-7h1.2zm6.6-0.1q-0.1-0.1-0.1-0.3 0-0.2-0.1-0.4-0.1 0.2-0.4 0.3-0.2 0.2-0.4 0.3-0.3 0.1-0.6 0.2-0.3 0.1-0.7 0.1-0.5 0-1-0.2-0.4-0.1-0.7-0.4-0.3-0.3-0.5-0.7-0.2-0.3-0.2-0.8 0-0.5 0.3-1 0.2-0.4 0.6-0.7 0.4-0.3 1-0.4 0.6-0.2 1.3-0.2h1.3v-0.5q0-0.3-0.1-0.6-0.1-0.2-0.3-0.4-0.2-0.2-0.5-0.3-0.3-0.1-0.7-0.1-0.4 0-0.6 0.1-0.3 0.1-0.5 0.2-0.2 0.2-0.3 0.4-0.1 0.2-0.1 0.4h-1.2q0-0.4 0.2-0.7 0.2-0.4 0.5-0.7 0.4-0.3 0.9-0.5 0.5-0.1 1.2-0.1 0.5 0 1.1 0.1 0.5 0.1 0.8 0.4 0.4 0.3 0.6 0.8 0.2 0.4 0.2 1v3.2q0 0.4 0.1 0.8 0 0.3 0.2 0.6v0.1zm-2.1-0.9q0.3 0 0.6-0.1 0.3 0 0.6-0.2 0.2-0.1 0.4-0.3 0.2-0.2 0.3-0.4v-1.4h-1.1q-1.1 0-1.7 0.3-0.5 0.3-0.5 1 0 0.2 0 0.4 0.1 0.2 0.3 0.4 0.2 0.2 0.4 0.3 0.3 0 0.7 0zm5.9-6l0.1 0.6q0.2-0.3 0.5-0.6 0.4-0.2 0.9-0.2 0.9 0 1.2 0.8 0.2-0.4 0.6-0.6 0.3-0.2 0.8-0.2 0.8 0 1.2 0.5 0.4 0.5 0.4 1.4v5.2h-1.2l0.1-5.2q0-0.9-0.8-0.9-0.3 0-0.4 0.1-0.2 0-0.3 0.2-0.1 0-0.1 0.2-0.1 0.1-0.1 0.3v5.3h-1.1v-5.2q0-0.4-0.2-0.6-0.2-0.3-0.6-0.3-0.4 0-0.6 0.2-0.2 0.1-0.3 0.4v5.5h-1.1v-6.9zm10.4 7q-0.7 0-1.4-0.2-0.6-0.3-1-0.7-0.4-0.5-0.7-1.1-0.2-0.6-0.2-1.3v-0.3q0-0.8 0.2-1.5 0.3-0.7 0.8-1.1 0.4-0.5 1-0.7 0.6-0.3 1.2-0.3 0.7 0 1.3 0.3 0.5 0.2 0.9 0.7 0.4 0.4 0.5 1.1 0.2 0.6 0.2 1.3v0.5l-4.9 0.1q0 0.4 0.1 0.9 0.2 0.4 0.5 0.7 0.3 0.3 0.7 0.5 0.4 0.2 0.9 0.2 0.6 0 1.1-0.3 0.5-0.3 0.8-0.7l0.7 0.6q-0.1 0.2-0.4 0.5-0.3 0.2-0.6 0.4-0.3 0.2-0.8 0.3-0.4 0.1-0.9 0.1zm-0.2-6.2q-0.3 0-0.6 0.1-0.4 0.1-0.6 0.4-0.3 0.3-0.4 0.6-0.2 0.4-0.3 0.9h3.7v-0.1q0-0.4-0.1-0.7-0.1-0.3-0.3-0.6-0.2-0.3-0.6-0.5-0.3-0.1-0.8-0.1zm7.2-3.1l-0.2 2.4h-0.8v-2.3-0.8h1zm2.3 0l-0.2 2.4h-0.8v-2.3-0.8h1zm-295.7 26.8q0-0.8 0.2-1.5 0.2-0.6 0.5-1.1 0.4-0.5 0.9-0.7 0.5-0.3 1.1-0.3 0.6 0 1.1 0.2 0.5 0.2 0.8 0.6v-3.6h1.1l0.2 9.9h-1.1l-0.1-0.8q-0.3 0.5-0.8 0.7-0.4 0.2-1.1 0.2-0.6 0-1.1-0.3-0.5-0.2-0.9-0.7-0.4-0.5-0.6-1.1-0.2-0.7-0.2-1.4zm1.2 0.1q0 0.5 0.1 1 0.1 0.4 0.4 0.8 0.2 0.3 0.6 0.5 0.3 0.2 0.8 0.2 0.3 0 0.5 0 0.3-0.1 0.5-0.2 0.2-0.2 0.3-0.4 0.2-0.1 0.3-0.4l-0.1-3.2q-0.2-0.4-0.6-0.7-0.4-0.2-1-0.2-0.5 0-0.8 0.2-0.4 0.2-0.6 0.5-0.2 0.4-0.3 0.8-0.1 0.5-0.1 1zm11.5 3.3q-0.1-0.1-0.2-0.3 0-0.2 0-0.4-0.2 0.2-0.4 0.3-0.2 0.2-0.5 0.3-0.3 0.1-0.6 0.2-0.3 0.1-0.6 0.1-0.5 0-1-0.2-0.4-0.1-0.8-0.4-0.3-0.3-0.4-0.7-0.2-0.3-0.2-0.8 0-0.5 0.2-1 0.2-0.4 0.6-0.7 0.4-0.3 1-0.4 0.6-0.2 1.3-0.2h1.3v-0.5q0-0.3-0.1-0.6-0.1-0.2-0.4-0.4-0.2-0.2-0.5-0.3-0.3-0.1-0.7-0.1-0.3 0-0.6 0.1-0.3 0.1-0.4 0.3-0.2 0.1-0.3 0.3-0.1 0.2-0.1 0.4h-1.2q0-0.3 0.2-0.7 0.1-0.4 0.5-0.6 0.3-0.3 0.8-0.5 0.6-0.2 1.2-0.2 0.6 0 1.1 0.1 0.5 0.2 0.9 0.5 0.3 0.3 0.5 0.7 0.3 0.4 0.3 1v3.2q0 0.4 0.1 0.8 0.1 0.3 0.2 0.6v0.1zm-2.1-0.9q0.3 0 0.6-0.1 0.3 0 0.6-0.2 0.2-0.1 0.4-0.3 0.2-0.2 0.3-0.4l-0.1-1.4h-1.1q-1 0-1.6 0.3-0.5 0.3-0.5 1 0 0.2 0.1 0.4 0.1 0.3 0.2 0.4 0.2 0.2 0.5 0.3 0.2 0 0.6 0zm8.1-7.7v1.7h2.6v0.9h-2.6v3.8q0.1 0.4 0.2 0.6 0.1 0.3 0.2 0.5 0.2 0.1 0.5 0.2 0.2 0 0.5 0 0.1 0 0.3 0 0.2 0 0.4 0 0.2-0.1 0.4-0.1 0.2 0 0.3-0.1l0.2 0.9q-0.2 0.1-0.4 0.1-0.2 0.1-0.5 0.1-0.2 0.1-0.5 0.1-0.3 0-0.5 0-0.5 0-0.9-0.1-0.4-0.1-0.7-0.4-0.3-0.3-0.5-0.7-0.1-0.5-0.1-1.1l-0.1-3.8h-1.8v-0.9h1.8v-1.7zm9.7 8.6q-0.1-0.1-0.2-0.3 0-0.2 0-0.5-0.2 0.2-0.4 0.4-0.2 0.1-0.5 0.3-0.3 0.1-0.6 0.2-0.2 0-0.6 0-0.5 0-1-0.1-0.4-0.2-0.7-0.5-0.3-0.2-0.5-0.6-0.2-0.4-0.2-0.8 0-0.6 0.2-1 0.2-0.4 0.6-0.7 0.5-0.3 1-0.5 0.6-0.1 1.3-0.1h1.3v-0.5q0-0.4-0.1-0.6-0.1-0.3-0.3-0.4-0.2-0.2-0.6-0.3-0.3-0.1-0.6-0.1-0.4 0-0.7 0.1-0.2 0.1-0.4 0.2-0.2 0.2-0.3 0.4-0.1 0.2-0.1 0.4h-1.2q0-0.4 0.2-0.7 0.2-0.4 0.5-0.7 0.4-0.3 0.9-0.5 0.5-0.2 1.1-0.2 0.6 0 1.1 0.2 0.5 0.1 0.9 0.4 0.4 0.3 0.6 0.7 0.2 0.5 0.2 1.1v3.2q0 0.3 0.1 0.7 0.1 0.4 0.2 0.7v0.1zm-2.1-0.9q0.3 0 0.6-0.1 0.3-0.1 0.6-0.2 0.2-0.2 0.4-0.4 0.2-0.2 0.3-0.4v-1.4h-1.1q-1.1 0-1.6 0.3-0.6 0.4-0.6 1 0 0.3 0.1 0.5 0.1 0.2 0.3 0.4 0.1 0.1 0.4 0.2 0.3 0.1 0.6 0.1zm10.5-2.7h-4.9v-1h4.9zm4.5 3.6l-0.1-6h-1.9v-0.9h1.9v-0.5q0-0.7 0.2-1.2 0.2-0.5 0.5-0.8 0.4-0.4 0.9-0.6 0.5-0.1 1.1-0.1 0.4 0 0.8 0 0.4 0.1 0.8 0.2l-0.1 1q-0.3-0.1-0.6-0.2-0.4 0-0.8 0-0.8 0-1.2 0.4-0.4 0.4-0.4 1.3v0.4h2.7v1h-2.7l0.1 6zm5.7-3.6q0-0.7 0.2-1.4 0.2-0.6 0.6-1.1 0.4-0.5 1-0.7 0.5-0.3 1.3-0.3 0.7 0 1.3 0.3 0.6 0.2 1 0.7 0.4 0.5 0.6 1.1 0.3 0.7 0.3 1.4v0.2q0 0.7-0.2 1.3-0.2 0.7-0.7 1.2-0.3 0.4-0.9 0.7-0.6 0.3-1.3 0.3-0.8 0-1.4-0.3-0.5-0.3-0.9-0.7-0.5-0.5-0.7-1.1-0.2-0.7-0.2-1.4zm1.2 0.1q0 0.5 0.1 1 0.1 0.5 0.4 0.8 0.2 0.4 0.6 0.6 0.4 0.2 0.9 0.2 0.4 0 0.8-0.2 0.4-0.3 0.6-0.6 0.3-0.4 0.4-0.8 0.1-0.5 0.1-1v-0.1q0-0.5-0.2-1-0.1-0.5-0.3-0.8-0.3-0.4-0.7-0.6-0.3-0.2-0.8-0.2-0.5 0-0.9 0.2-0.3 0.2-0.6 0.6-0.2 0.3-0.3 0.8-0.1 0.5-0.1 1zm11.4-3.7q0.2 0 0.4 0 0.2 0 0.3 0 0.2 0 0.3 0.1 0.2 0 0.3 0l-0.2 1.2q-0.3-0.1-0.6-0.1-0.4-0.1-0.7-0.1-0.8 0-1.3 0.4-0.5 0.4-0.8 1.1l0.1 4.4h-1.2l-0.1-6.9h1.1l0.1 1.1q0.4-0.6 1-0.9 0.6-0.3 1.3-0.3zm3.9 0.1l0.1 0.6q0.2-0.3 0.5-0.5 0.3-0.2 0.8-0.2 1-0.1 1.3 0.7 0.2-0.3 0.5-0.5 0.4-0.2 0.8-0.3 0.8 0 1.2 0.5 0.4 0.5 0.4 1.4l0.1 5.2h-1.1l-0.1-5.2q0-0.9-0.8-0.9-0.2 0-0.4 0.1-0.1 0.1-0.2 0.2-0.1 0.1-0.2 0.2 0 0.1 0 0.3v5.3h-1.1l-0.1-5.2q0-0.4-0.2-0.6-0.1-0.3-0.5-0.2-0.4 0-0.6 0.1-0.2 0.2-0.3 0.4l0.1 5.5h-1.2v-6.9zm12.5 3.3h-4.9v-1h4.8zm2.9-3.3h3.5l0.1 5.9h2.2v1h-5.7l-0.1-1h2.4l-0.1-4.9h-2.3zm2.2-1.8q0-0.3 0.1-0.5 0.2-0.2 0.6-0.2 0.3 0 0.5 0.2 0.2 0.2 0.2 0.5 0 0.3-0.2 0.4-0.2 0.2-0.5 0.2-0.4 0-0.5-0.1-0.2-0.2-0.2-0.5zm5.3 5.2q0-0.8 0.2-1.4 0.1-0.7 0.5-1.2 0.4-0.4 0.9-0.7 0.5-0.3 1.1-0.3 0.6 0 1.1 0.2 0.5 0.3 0.8 0.6v-3.5l1.1-0.1 0.1 9.9h-1.1v-0.7q-0.4 0.4-0.8 0.6-0.5 0.2-1.1 0.2-0.7 0-1.2-0.2-0.5-0.3-0.9-0.8-0.3-0.5-0.5-1.1-0.2-0.6-0.2-1.4zm1.2 0.1q0 0.6 0.1 1 0.1 0.5 0.3 0.8 0.2 0.4 0.6 0.6 0.4 0.2 0.8 0.2 0.3 0 0.6-0.1 0.2-0.1 0.4-0.2 0.2-0.2 0.4-0.3 0.1-0.2 0.2-0.4v-3.3q-0.2-0.4-0.6-0.6-0.4-0.3-1-0.3-0.5 0-0.8 0.2-0.4 0.2-0.6 0.5-0.2 0.4-0.3 0.9-0.2 0.4-0.1 0.9zm12.5-1.6h-5.7v-1l5.7-0.1zm0 2.7h-5.7v-1h5.7zm4.3-6.8l-0.2 2.3h-0.8v-2.2-0.8h0.9zm2.3-0.1l-0.1 2.4h-0.8v-2.2-0.8l0.9-0.1zm5.3 9.2v-6h-1.9v-1h1.9v-0.4q0-0.7 0.1-1.2 0.2-0.5 0.6-0.9 0.3-0.3 0.8-0.5 0.5-0.1 1.2-0.2 0.4 0 0.8 0.1 0.4 0.1 0.8 0.2l-0.1 1q-0.3-0.1-0.6-0.2-0.4 0-0.8 0-0.8 0-1.2 0.4-0.5 0.4-0.4 1.3v0.4h2.6v0.9l-2.6 0.1v6zm5.7-3.6q0-0.7 0.3-1.4 0.2-0.6 0.6-1.1 0.4-0.5 0.9-0.7 0.6-0.3 1.4-0.3 0.7 0 1.3 0.3 0.6 0.2 1 0.7 0.4 0.5 0.6 1.1 0.2 0.7 0.2 1.4v0.1q0 0.8-0.2 1.4-0.2 0.7-0.6 1.2-0.4 0.4-1 0.7-0.5 0.3-1.3 0.3-0.7 0-1.3-0.3-0.6-0.3-1-0.7-0.4-0.5-0.6-1.1-0.2-0.7-0.3-1.4zm1.2 0.1q0 0.5 0.2 1 0.1 0.4 0.3 0.8 0.3 0.4 0.7 0.6 0.3 0.2 0.8 0.2 0.5 0 0.9-0.3 0.3-0.2 0.6-0.5 0.2-0.4 0.3-0.8 0.2-0.5 0.2-1v-0.1q-0.1-0.6-0.2-1-0.1-0.5-0.4-0.8-0.2-0.4-0.6-0.6-0.3-0.2-0.8-0.2-0.5 0-0.9 0.2-0.4 0.2-0.6 0.6-0.2 0.3-0.4 0.8-0.1 0.5-0.1 1zm11.5-3.7q0.2 0 0.4 0 0.2 0 0.3 0 0.2 0 0.3 0 0.2 0.1 0.3 0.1l-0.2 1.2q-0.3-0.1-0.7-0.1-0.3-0.1-0.6-0.1-0.8 0-1.3 0.4-0.6 0.4-0.8 1.1v4.4h-1.1l-0.1-6.9h1.1l0.1 1.1q0.4-0.6 1-0.9 0.6-0.3 1.3-0.3zm3.9 0.1l0.1 0.6q0.2-0.3 0.5-0.5 0.3-0.3 0.8-0.3 1 0 1.3 0.8 0.2-0.4 0.5-0.6 0.4-0.2 0.9-0.2 0.7 0 1.1 0.5 0.4 0.5 0.4 1.4l0.1 5.2h-1.1l-0.1-5.2q0-0.9-0.8-0.9-0.2 0-0.3 0.1-0.2 0.1-0.3 0.2-0.1 0.1-0.2 0.2 0 0.1 0 0.3v5.3h-1.1l-0.1-5.2q0-0.4-0.1-0.6-0.2-0.3-0.6-0.3-0.4 0.1-0.6 0.2-0.2 0.1-0.3 0.4v5.5h-1.1v-6.9zm12.5 3.3h-4.9v-1h4.9zm2.8-3.3l3.6-0.1v6h2.2l0.1 1h-5.8v-1h2.3v-4.9h-2.4zm2.2-1.8q0-0.3 0.2-0.5 0.2-0.2 0.5-0.2 0.4 0 0.6 0.2 0.1 0.2 0.1 0.5 0 0.2-0.1 0.4-0.2 0.2-0.6 0.2-0.3 0-0.5-0.2-0.2-0.2-0.2-0.4zm5.3 5.2q0-0.8 0.2-1.4 0.2-0.7 0.5-1.2 0.4-0.4 0.9-0.7 0.5-0.3 1.2-0.3 0.6 0 1 0.2 0.5 0.2 0.8 0.6v-3.6h1.2l0.1 9.9h-1.1l-0.1-0.7q-0.3 0.4-0.8 0.6-0.5 0.2-1.1 0.2-0.6 0-1.2-0.2-0.5-0.3-0.8-0.8-0.4-0.5-0.6-1.1-0.2-0.6-0.2-1.4zm1.2 0.1q0 0.6 0.1 1 0.1 0.5 0.3 0.8 0.3 0.4 0.6 0.6 0.4 0.2 0.9 0.2 0.3 0 0.5-0.1 0.3-0.1 0.5-0.2 0.1-0.2 0.3-0.3 0.2-0.2 0.3-0.4v-3.3q-0.3-0.4-0.7-0.7-0.4-0.2-0.9-0.2-0.5 0-0.9 0.2-0.4 0.2-0.6 0.5-0.2 0.4-0.3 0.8-0.1 0.5-0.1 1zm9-5.8l-0.1 2.4h-0.9v-2.3-0.8h1zm2.3 0l-0.2 2.4h-0.8v-2.3-0.8h1zm-169.2 26.3q0-0.8 0.2-1.4 0.2-0.7 0.5-1.2 0.4-0.4 0.9-0.7 0.5-0.3 1.1-0.3 0.6 0 1.1 0.3 0.4 0.2 0.8 0.6l-0.1-3.6h1.2l0.2 9.8h-1.1l-0.1-0.7q-0.3 0.4-0.8 0.6-0.5 0.2-1.1 0.2-0.6 0-1.1-0.3-0.5-0.2-0.9-0.7-0.4-0.5-0.6-1.1-0.2-0.6-0.2-1.4zm1.2 0.1q0 0.5 0.1 1 0.1 0.5 0.3 0.8 0.3 0.3 0.6 0.5 0.4 0.2 0.9 0.2 0.3 0 0.5 0 0.3-0.1 0.4-0.2 0.2-0.2 0.4-0.3 0.1-0.2 0.3-0.5l-0.1-3.2q-0.2-0.4-0.6-0.6-0.4-0.3-1-0.3-0.5 0-0.8 0.2-0.4 0.2-0.6 0.5-0.2 0.4-0.3 0.9-0.1 0.4-0.1 0.9zm11.4 3.4q-0.1-0.2-0.1-0.4 0-0.2-0.1-0.4-0.1 0.2-0.4 0.3-0.2 0.2-0.4 0.3-0.3 0.1-0.6 0.2-0.3 0.1-0.6 0.1-0.6 0-1-0.2-0.5-0.1-0.8-0.4-0.3-0.3-0.5-0.6-0.1-0.4-0.1-0.8-0.1-0.6 0.2-1 0.2-0.5 0.6-0.8 0.4-0.2 1-0.4 0.6-0.1 1.3-0.1h1.3v-0.6q0-0.3-0.2-0.5-0.1-0.3-0.3-0.5-0.2-0.1-0.5-0.2-0.3-0.1-0.7-0.1-0.3 0-0.6 0.1-0.3 0.1-0.5 0.2-0.2 0.2-0.3 0.4-0.1 0.2-0.1 0.4h-1.1q0-0.4 0.1-0.8 0.2-0.3 0.6-0.6 0.3-0.3 0.8-0.5 0.5-0.2 1.2-0.2 0.6 0 1.1 0.2 0.5 0.1 0.8 0.4 0.4 0.3 0.6 0.7 0.2 0.5 0.2 1l0.1 3.2q0 0.4 0.1 0.8 0 0.4 0.1 0.7v0.1zm-2-0.9q0.3 0 0.6-0.1 0.3-0.1 0.5-0.3 0.3-0.1 0.5-0.3 0.1-0.2 0.2-0.4v-1.4h-1.1q-1 0-1.6 0.3-0.6 0.3-0.5 1 0 0.2 0 0.5 0.1 0.2 0.3 0.3 0.2 0.2 0.4 0.3 0.3 0.1 0.7 0.1zm8-7.7v1.6h2.7v0.9h-2.6v3.8q0 0.4 0.1 0.7 0.1 0.2 0.3 0.4 0.2 0.1 0.4 0.2 0.2 0.1 0.5 0.1 0.2 0 0.4-0.1 0.2 0 0.4 0 0.2-0.1 0.4-0.1 0.1 0 0.2 0l0.2 0.8q-0.1 0.1-0.3 0.1-0.2 0.1-0.5 0.2-0.2 0-0.5 0-0.3 0.1-0.6 0.1-0.4 0-0.8-0.2-0.4-0.1-0.7-0.4-0.3-0.3-0.5-0.7-0.2-0.5-0.2-1.1v-3.8l-1.8 0.1v-1h1.8l-0.1-1.6zm9.7 8.5q-0.1-0.1-0.1-0.3 0-0.2-0.1-0.4-0.1 0.1-0.4 0.3-0.2 0.2-0.4 0.3-0.3 0.1-0.6 0.2-0.3 0-0.6 0.1-0.6 0-1-0.2-0.5-0.2-0.8-0.4-0.3-0.3-0.5-0.7-0.1-0.4-0.1-0.8-0.1-0.6 0.2-1 0.2-0.4 0.6-0.7 0.4-0.3 1-0.4 0.6-0.2 1.3-0.2h1.3v-0.5q0-0.3-0.2-0.6-0.1-0.2-0.3-0.4-0.2-0.2-0.5-0.3-0.3-0.1-0.7-0.1-0.3 0-0.6 0.1-0.3 0.1-0.5 0.3-0.2 0.1-0.3 0.3-0.1 0.2-0.1 0.4h-1.1q0-0.3 0.1-0.7 0.2-0.4 0.6-0.7 0.3-0.3 0.8-0.4 0.5-0.2 1.2-0.2 0.6 0 1.1 0.1 0.5 0.2 0.8 0.5 0.4 0.2 0.6 0.7 0.2 0.4 0.2 1l0.1 3.2q0 0.4 0.1 0.7 0 0.4 0.1 0.7v0.1zm-2-0.9q0.3 0 0.6-0.1 0.3-0.1 0.5-0.2 0.3-0.2 0.5-0.3 0.1-0.2 0.2-0.4v-1.4h-1.1q-1 0-1.6 0.3-0.6 0.3-0.5 0.9 0 0.3 0 0.5 0.1 0.2 0.3 0.4 0.2 0.1 0.4 0.2 0.3 0.1 0.7 0.1zm10.5-2.7h-4.9v-0.9l4.8-0.1zm4.8 0.4l-0.9 0.8 0.1 2.4h-1.2l-0.1-9.8h1.1l0.1 6 0.8-0.8 2.2-2.3h1.4l-2.7 2.9 3.3 4h-1.5zm8.8 3.3q-0.7 0-1.3-0.2-0.6-0.3-1.1-0.7-0.4-0.5-0.7-1.1-0.2-0.6-0.2-1.3v-0.3q0-0.8 0.2-1.5 0.3-0.6 0.7-1.1 0.5-0.4 1-0.7 0.6-0.2 1.2-0.2 0.7 0 1.3 0.2 0.5 0.3 0.9 0.7 0.4 0.5 0.6 1.1 0.2 0.6 0.2 1.3v0.6h-4.9q0 0.5 0.1 0.9 0.2 0.4 0.5 0.7 0.3 0.3 0.7 0.5 0.4 0.2 0.9 0.2 0.6 0 1.1-0.3 0.5-0.2 0.8-0.7l0.7 0.6q-0.2 0.3-0.4 0.5-0.3 0.2-0.6 0.4-0.3 0.2-0.8 0.3-0.4 0.1-0.9 0.1zm-0.2-6.2q-0.4 0-0.7 0.2-0.3 0.1-0.6 0.4-0.2 0.2-0.4 0.6-0.1 0.3-0.2 0.8h3.7v-0.1q0-0.3-0.1-0.7-0.2-0.3-0.4-0.6-0.2-0.2-0.5-0.4-0.4-0.2-0.8-0.2zm7.5 3.6l0.3 0.9 2.1-5.3h1.3l-3.4 8q-0.1 0.2-0.3 0.5-0.2 0.3-0.5 0.6-0.2 0.2-0.6 0.4-0.4 0.2-0.8 0.2-0.1 0-0.2 0-0.1 0-0.2-0.1-0.1 0-0.2 0-0.1 0-0.1 0l0.1-1q0.1 0 0.2 0 0 0 0.1 0 0.1 0 0.2 0 0.1 0 0.1 0 0.2 0 0.4-0.1 0.2-0.1 0.4-0.3 0.1-0.2 0.3-0.4 0.1-0.2 0.1-0.3l0.5-0.9-3.1-6.6h1.4zm10.9-2.6h-5.7v-1h5.7zm0 2.6l-5.7 0.1v-1.1h5.7zm4.2-6.8l-0.1 2.4h-0.8v-2.3-0.8h0.9zm2.3 0l-0.1 2.4h-0.8l-0.1-2.3v-0.8h1zm6.2 0.5l0.1 1.7h2.6v0.9h-2.6v3.8q0 0.4 0.1 0.6 0.1 0.3 0.3 0.5 0.2 0.1 0.4 0.2 0.2 0 0.5 0 0.2 0 0.4 0 0.2 0 0.4 0 0.2-0.1 0.4-0.1 0.1 0 0.2-0.1l0.2 0.9q-0.1 0.1-0.3 0.1-0.3 0.1-0.5 0.1-0.2 0.1-0.5 0.1-0.3 0-0.6 0-0.4 0-0.8-0.1-0.4-0.1-0.7-0.4-0.3-0.3-0.5-0.7-0.2-0.5-0.2-1.1v-3.8h-1.8v-0.9h1.8v-1.7zm8.1 8.7q-0.7 0-1.3-0.2-0.6-0.3-1-0.7-0.5-0.5-0.7-1.1-0.3-0.6-0.3-1.3v-0.3q0-0.8 0.3-1.5 0.2-0.6 0.7-1.1 0.4-0.4 1-0.7 0.5-0.2 1.1-0.2 0.8 0 1.3 0.2 0.6 0.3 1 0.7 0.3 0.5 0.5 1.1 0.2 0.6 0.2 1.3v0.6h-4.9q0 0.5 0.2 0.9 0.2 0.4 0.4 0.7 0.3 0.3 0.7 0.5 0.4 0.2 0.9 0.2 0.6 0 1.1-0.3 0.5-0.3 0.8-0.7l0.8 0.6q-0.2 0.3-0.5 0.5-0.2 0.2-0.6 0.4-0.3 0.2-0.7 0.3-0.5 0.1-1 0.1zm-0.2-6.2q-0.3 0-0.6 0.2-0.4 0.1-0.6 0.4-0.3 0.2-0.4 0.6-0.2 0.3-0.3 0.8h3.7v-0.1q0-0.3-0.1-0.7-0.1-0.3-0.3-0.6-0.3-0.2-0.6-0.4-0.3-0.2-0.8-0.2zm9.6 4.2q0-0.2-0.1-0.3-0.1-0.2-0.3-0.3-0.2-0.2-0.5-0.3-0.3-0.1-0.8-0.2-0.6-0.1-1.1-0.3-0.5-0.2-0.8-0.4-0.4-0.3-0.6-0.6-0.2-0.3-0.2-0.7 0-0.4 0.2-0.8 0.2-0.4 0.6-0.7 0.3-0.2 0.8-0.4 0.5-0.2 1.1-0.2 0.6 0 1.2 0.2 0.5 0.2 0.8 0.5 0.4 0.3 0.6 0.6 0.2 0.4 0.2 0.9h-1.2q0-0.2-0.1-0.4-0.1-0.3-0.3-0.4-0.2-0.2-0.5-0.3-0.3-0.1-0.7-0.1-0.4 0-0.6 0.1-0.3 0.1-0.5 0.2-0.2 0.2-0.3 0.3-0.1 0.2-0.1 0.4 0 0.2 0.1 0.4 0.1 0.2 0.3 0.3 0.1 0.1 0.5 0.2 0.3 0.1 0.8 0.2 0.6 0.1 1.1 0.3 0.5 0.2 0.9 0.4 0.3 0.3 0.5 0.6 0.2 0.3 0.2 0.8 0 0.4-0.2 0.8-0.2 0.4-0.6 0.6-0.4 0.3-0.9 0.5-0.5 0.1-1.1 0.1-0.7 0-1.3-0.2-0.5-0.2-0.9-0.5-0.4-0.3-0.6-0.7-0.2-0.4-0.2-0.8h1.2q0 0.3 0.2 0.6 0.2 0.2 0.4 0.4 0.3 0.1 0.6 0.2 0.3 0.1 0.6 0.1 0.7 0 1.2-0.3 0.4-0.3 0.4-0.8zm6-6.7v1.6h2.6v1h-2.6l0.1 3.7q0 0.4 0.1 0.7 0.1 0.2 0.2 0.4 0.2 0.2 0.5 0.2 0.2 0.1 0.5 0.1 0.1 0 0.3 0 0.2-0.1 0.4-0.1 0.2 0 0.4-0.1 0.2 0 0.3 0l0.2 0.8q-0.2 0.1-0.4 0.2-0.2 0-0.5 0.1-0.2 0-0.5 0.1-0.3 0-0.5 0-0.5 0-0.9-0.1-0.4-0.2-0.7-0.5-0.3-0.2-0.5-0.7-0.1-0.4-0.1-1.1l-0.1-3.7h-1.8v-0.9l1.8-0.1v-1.6zm10.9 9.5h-5.9v-0.9l5.9-0.1zm4.1-4.2l-0.8 0.9v2.4h-1.2l-0.1-9.9h1.2v6.1l0.8-0.9 2.3-2.3h1.4l-2.8 2.9 3.3 4.1h-1.5zm8.8 3.3q-0.7 0-1.3-0.3-0.6-0.2-1.1-0.7-0.4-0.4-0.6-1-0.3-0.6-0.3-1.3v-0.3q0-0.9 0.3-1.5 0.2-0.7 0.7-1.1 0.4-0.5 1-0.7 0.5-0.3 1.1-0.3 0.8 0 1.3 0.3 0.6 0.2 1 0.7 0.3 0.4 0.5 1.1 0.2 0.6 0.2 1.3v0.5h-4.9q0 0.5 0.2 0.9 0.1 0.5 0.4 0.8 0.3 0.3 0.7 0.4 0.4 0.2 0.9 0.2 0.6 0 1.1-0.2 0.5-0.3 0.8-0.7l0.7 0.5q-0.1 0.3-0.4 0.6-0.2 0.2-0.6 0.4-0.3 0.2-0.7 0.3-0.5 0.1-1 0.1zm-0.2-6.2q-0.3 0-0.6 0.1-0.4 0.2-0.6 0.4-0.3 0.3-0.4 0.6-0.2 0.4-0.3 0.9h3.7v-0.1q0-0.4-0.1-0.7-0.1-0.3-0.3-0.6-0.3-0.3-0.6-0.4-0.3-0.2-0.8-0.2zm7.6 3.6l0.3 0.8 2-5.3h1.4l-3.5 8q-0.1 0.3-0.3 0.6-0.2 0.3-0.5 0.5-0.2 0.3-0.6 0.5-0.3 0.1-0.8 0.1-0.1 0-0.2 0-0.1 0-0.2 0-0.1 0-0.2 0-0.1 0-0.1-0.1l0.2-0.9q0 0 0.1 0 0.1 0 0.1 0 0.1 0 0.2 0 0.1 0 0.1 0 0.3 0 0.5-0.1 0.2-0.2 0.3-0.4 0.2-0.1 0.3-0.3 0.1-0.2 0.2-0.4l0.4-0.9-3-6.6h1.3zm7.4-6.7l-0.1 2.4h-0.8v-2.3l-0.1-0.8h1zm2.3 0l-0.1 2.4h-0.9v-2.3-0.8h1zm-145.4 26.1q0-0.7 0.2-1.4 0.2-0.6 0.5-1.1 0.4-0.5 0.9-0.7 0.5-0.3 1.1-0.3 0.6 0 1.1 0.2 0.4 0.2 0.8 0.6l-0.1-3.6h1.2l0.1 9.8h-1l-0.1-0.7q-0.3 0.4-0.8 0.6-0.5 0.2-1.1 0.2-0.6 0.1-1.1-0.2-0.6-0.3-0.9-0.8-0.4-0.4-0.6-1.1-0.2-0.6-0.2-1.3zm1.2 0.1q0 0.5 0.1 0.9 0.1 0.5 0.3 0.8 0.3 0.4 0.6 0.6 0.4 0.2 0.9 0.2 0.3 0 0.5-0.1 0.2-0.1 0.4-0.2 0.2-0.1 0.4-0.3 0.1-0.2 0.2-0.4v-3.2q-0.2-0.4-0.6-0.7-0.4-0.3-1-0.3-0.5 0-0.8 0.2-0.4 0.2-0.6 0.6-0.2 0.3-0.3 0.8-0.1 0.5-0.1 1zm11.4 3.3q-0.1-0.1-0.1-0.3-0.1-0.2-0.1-0.5-0.2 0.2-0.4 0.4-0.2 0.1-0.5 0.3-0.2 0.1-0.5 0.2-0.3 0-0.6 0-0.6 0-1-0.1-0.5-0.2-0.8-0.5-0.3-0.2-0.5-0.6-0.2-0.4-0.2-0.8 0-0.6 0.2-1 0.3-0.4 0.7-0.7 0.4-0.3 1-0.4 0.5-0.2 1.3-0.2h1.3l-0.1-0.5q0-0.3-0.1-0.6-0.1-0.2-0.3-0.4-0.2-0.2-0.5-0.3-0.3-0.1-0.7-0.1-0.4 0-0.6 0.1-0.3 0.1-0.5 0.3-0.2 0.1-0.3 0.3-0.1 0.2-0.1 0.4h-1.2q0-0.3 0.2-0.7 0.2-0.4 0.5-0.7 0.4-0.3 0.9-0.4 0.5-0.2 1.1-0.2 0.6 0 1.1 0.1 0.5 0.2 0.9 0.5 0.4 0.2 0.6 0.7 0.2 0.4 0.2 1l0.1 3.2q0 0.3 0 0.7 0.1 0.4 0.2 0.7v0.1zm-2.1-0.9q0.4 0 0.7-0.1 0.3-0.1 0.5-0.2 0.3-0.2 0.4-0.4 0.2-0.1 0.3-0.4v-1.3h-1.1q-1 0-1.6 0.3-0.6 0.3-0.6 0.9 0 0.3 0.1 0.5 0.1 0.2 0.3 0.4 0.2 0.1 0.4 0.2 0.3 0.1 0.6 0.1zm8.1-7.7v1.7h2.6v0.9h-2.6l0.1 3.7q0 0.4 0.1 0.7 0.1 0.3 0.3 0.4 0.2 0.2 0.4 0.2 0.2 0.1 0.5 0.1 0.2 0 0.4 0 0.2 0 0.4-0.1 0.2 0 0.3 0 0.2-0.1 0.3-0.1l0.2 0.8q-0.2 0.1-0.4 0.2-0.2 0.1-0.4 0.1-0.3 0.1-0.6 0.1-0.2 0-0.5 0-0.5 0-0.9-0.1-0.4-0.2-0.7-0.4-0.2-0.3-0.4-0.8-0.2-0.4-0.2-1.1l-0.1-3.7h-1.8v-0.9h1.8v-1.7zm9.7 8.6q-0.1-0.2-0.1-0.4-0.1-0.2-0.1-0.4-0.2 0.2-0.4 0.3-0.2 0.2-0.5 0.3-0.2 0.2-0.5 0.2-0.3 0.1-0.7 0.1-0.5 0-1-0.2-0.4-0.1-0.7-0.4-0.3-0.3-0.5-0.6-0.2-0.4-0.2-0.8 0-0.6 0.2-1 0.3-0.5 0.7-0.7 0.4-0.3 0.9-0.5 0.6-0.1 1.4-0.1h1.2v-0.6q0-0.3-0.1-0.5-0.1-0.3-0.3-0.4-0.2-0.2-0.5-0.3-0.3-0.1-0.7-0.1-0.4 0-0.6 0.1-0.3 0.1-0.5 0.2-0.2 0.2-0.3 0.4-0.1 0.2-0.1 0.4h-1.2q0-0.4 0.2-0.7 0.2-0.4 0.5-0.7 0.4-0.3 0.9-0.5 0.5-0.2 1.1-0.2 0.6 0 1.1 0.2 0.5 0.1 0.9 0.4 0.4 0.3 0.6 0.7 0.2 0.5 0.2 1.1v3.2q0.1 0.3 0.1 0.7 0.1 0.4 0.2 0.7v0.1zm-2.1-0.9q0.4 0 0.7-0.1 0.3-0.1 0.5-0.3 0.2-0.1 0.4-0.3 0.2-0.2 0.3-0.4v-1.4h-1.1q-1.1 0-1.6 0.3-0.6 0.3-0.6 1 0 0.2 0.1 0.5 0.1 0.2 0.3 0.3 0.1 0.2 0.4 0.3 0.3 0.1 0.6 0.1zm10.5-2.7h-4.9v-1h4.9zm8.5 0.2q0 0.7-0.2 1.4-0.2 0.6-0.5 1.1-0.3 0.4-0.8 0.7-0.5 0.3-1.2 0.3-0.6 0-1.1-0.2-0.5-0.2-0.8-0.6v3.3h-1.2l-0.1-9.5h1.1l0.1 0.7q0.3-0.4 0.8-0.6 0.5-0.3 1.1-0.3 0.7 0 1.2 0.3 0.5 0.3 0.9 0.7 0.3 0.5 0.5 1.1 0.2 0.7 0.2 1.4zm-1.2-0.1q0-0.5-0.1-0.9-0.1-0.5-0.4-0.8-0.2-0.4-0.6-0.6-0.3-0.2-0.8-0.2-0.6 0-1 0.3-0.4 0.2-0.6 0.6l0.1 3.4q0.2 0.4 0.6 0.6 0.4 0.3 1 0.3 0.4 0 0.8-0.2 0.3-0.2 0.6-0.6 0.2-0.3 0.3-0.8 0.1-0.4 0.1-1zm7.7-3.5q0.1 0 0.3 0 0.2 0 0.3 0.1 0.2 0 0.3 0 0.2 0 0.3 0.1l-0.2 1.1q-0.3 0-0.6-0.1-0.3 0-0.7 0-0.8 0-1.3 0.4-0.5 0.3-0.7 1v4.4h-1.2l-0.1-6.9h1.2v1.1q0.4-0.5 1-0.9 0.6-0.3 1.4-0.3zm3 3.5q0-0.7 0.2-1.4 0.2-0.6 0.6-1.1 0.4-0.5 1-0.7 0.6-0.3 1.3-0.3 0.7 0 1.3 0.3 0.6 0.2 1 0.7 0.4 0.5 0.6 1.1 0.2 0.7 0.3 1.4v0.1q0 0.8-0.2 1.4-0.3 0.7-0.7 1.1-0.4 0.5-0.9 0.8-0.6 0.2-1.3 0.2-0.8 0-1.4-0.2-0.5-0.3-0.9-0.8-0.5-0.4-0.7-1.1-0.2-0.6-0.2-1.3zm1.2 0.1q0 0.5 0.1 1 0.1 0.4 0.4 0.8 0.2 0.3 0.6 0.5 0.4 0.2 0.9 0.2 0.4 0 0.8-0.2 0.4-0.2 0.6-0.5 0.3-0.4 0.4-0.8 0.1-0.5 0.1-1v-0.2q0-0.5-0.2-0.9-0.1-0.5-0.3-0.8-0.3-0.4-0.7-0.6-0.3-0.2-0.8-0.2-0.5 0-0.9 0.2-0.3 0.2-0.6 0.6-0.2 0.3-0.3 0.8-0.1 0.5-0.1 1zm6.7-0.2q0-0.8 0.2-1.4 0.2-0.7 0.5-1.1 0.4-0.5 0.9-0.8 0.5-0.2 1.1-0.2 0.7 0 1.1 0.2 0.5 0.2 0.8 0.6v-3.6h1.2l0.1 9.8h-1.1l-0.1-0.7q-0.3 0.4-0.8 0.6-0.5 0.2-1.1 0.2-0.6 0-1.1-0.2-0.5-0.3-0.9-0.8-0.4-0.4-0.6-1.1-0.2-0.6-0.2-1.4zm1.2 0.2q0 0.5 0.1 0.9 0.1 0.5 0.4 0.8 0.2 0.4 0.5 0.6 0.4 0.2 0.9 0.2 0.3 0 0.5-0.1 0.3-0.1 0.5-0.2 0.2-0.1 0.3-0.3 0.2-0.2 0.3-0.4l-0.1-3.2q-0.2-0.5-0.6-0.7-0.4-0.3-0.9-0.3-0.5 0-0.9 0.2-0.3 0.2-0.6 0.6-0.2 0.3-0.3 0.8-0.1 0.4-0.1 0.9zm11.4 2.4q-0.4 0.5-0.9 0.8-0.5 0.3-1.2 0.3-0.5 0-0.9-0.2-0.5-0.1-0.8-0.5-0.3-0.3-0.5-0.9-0.2-0.5-0.2-1.3v-4.1h1.2v4.1q0 0.6 0.1 0.9 0.1 0.4 0.3 0.6 0.2 0.2 0.4 0.3 0.3 0.1 0.6 0.1 0.7 0 1.2-0.3 0.4-0.3 0.6-0.8v-4.9h1.2v6.9h-1zm6.2 0.1q0.4 0 0.7-0.1 0.3-0.1 0.5-0.3 0.2-0.2 0.4-0.4 0.1-0.3 0.1-0.6h1.1q0 0.5-0.2 0.9-0.2 0.4-0.6 0.7-0.4 0.4-0.9 0.6-0.5 0.1-1 0.1-0.8 0-1.4-0.2-0.6-0.3-1-0.8-0.4-0.5-0.6-1.1-0.2-0.6-0.2-1.3v-0.3q0-0.6 0.2-1.3 0.2-0.6 0.6-1.1 0.3-0.4 0.9-0.7 0.6-0.3 1.4-0.3 0.6 0 1.1 0.2 0.5 0.2 0.9 0.5 0.4 0.3 0.6 0.8 0.2 0.5 0.2 1h-1.1q0-0.3-0.1-0.6-0.2-0.3-0.4-0.5-0.2-0.2-0.5-0.3-0.3-0.1-0.7-0.1-0.5 0-0.9 0.2-0.4 0.2-0.6 0.6-0.2 0.3-0.3 0.7-0.1 0.5-0.1 0.9v0.3q0 0.5 0.1 0.9 0.1 0.4 0.3 0.8 0.2 0.3 0.6 0.6 0.4 0.2 0.9 0.2zm7.7-7.8v1.7h2.6v0.9h-2.6v3.8q0 0.4 0.1 0.6 0.1 0.3 0.3 0.4 0.2 0.2 0.4 0.3 0.3 0 0.5 0 0.2 0 0.4 0 0.2 0 0.4-0.1 0.2 0 0.4 0 0.1-0.1 0.3-0.1l0.1 0.8q-0.1 0.1-0.3 0.2-0.2 0.1-0.5 0.1-0.2 0.1-0.5 0.1-0.3 0-0.6 0-0.4 0-0.8-0.1-0.4-0.1-0.7-0.4-0.3-0.3-0.5-0.7-0.2-0.5-0.2-1.1v-3.8h-1.8v-0.9h1.8v-1.7zm10.7 3.6h-5.6l-0.1-1h5.7zm0.1 2.6h-5.7v-1h5.6zm4.2-6.8l-0.1 2.4h-0.8v-2.3-0.8h0.9zm2.3 0l-0.1 2.4h-0.8v-2.3-0.8h0.9zm6.3 0.5v1.7h2.6v0.9h-2.6v3.8q0 0.4 0.1 0.6 0.1 0.3 0.3 0.4 0.2 0.2 0.4 0.3 0.3 0 0.5 0 0.2 0 0.4 0 0.2 0 0.4-0.1 0.2 0 0.4 0 0.1-0.1 0.2-0.1l0.2 0.9q-0.1 0-0.3 0.1-0.2 0.1-0.5 0.1-0.2 0.1-0.5 0.1-0.3 0-0.6 0-0.4 0-0.8-0.1-0.4-0.1-0.7-0.4-0.3-0.3-0.5-0.7-0.2-0.5-0.2-1.1v-3.8h-1.8v-0.9h1.8v-1.7zm9.6 1.6q0.1 0 0.3 0 0.2 0 0.3 0 0.2 0 0.3 0 0.2 0.1 0.3 0.1l-0.2 1.2q-0.3-0.1-0.6-0.1-0.3-0.1-0.7-0.1-0.8 0-1.3 0.4-0.5 0.4-0.8 1.1l0.1 4.4h-1.2l-0.1-6.9h1.2v1.1q0.4-0.6 1-0.9 0.6-0.3 1.4-0.3zm7.9 7q-0.1-0.2-0.1-0.4-0.1-0.2-0.1-0.4-0.2 0.2-0.4 0.4-0.2 0.1-0.5 0.2-0.3 0.2-0.6 0.2-0.2 0.1-0.6 0.1-0.5 0-1-0.2-0.4-0.1-0.7-0.4-0.3-0.3-0.5-0.6-0.2-0.4-0.2-0.8 0-0.6 0.2-1 0.3-0.5 0.7-0.7 0.4-0.3 1-0.5 0.5-0.1 1.3-0.1h1.2v-0.6q0-0.3-0.1-0.5-0.1-0.3-0.3-0.4-0.2-0.2-0.5-0.3-0.3-0.1-0.7-0.1-0.3 0-0.6 0.1-0.3 0.1-0.5 0.2-0.2 0.2-0.3 0.4-0.1 0.2-0.1 0.4h-1.2q0-0.4 0.2-0.8 0.2-0.3 0.6-0.6 0.3-0.3 0.8-0.5 0.5-0.2 1.2-0.2 0.5 0 1.1 0.2 0.5 0.1 0.8 0.4 0.4 0.3 0.6 0.7 0.2 0.5 0.2 1v3.3q0 0.3 0.1 0.7 0.1 0.4 0.2 0.7v0.1zm-2.1-0.9q0.4 0 0.7-0.1 0.3-0.1 0.5-0.3 0.2-0.1 0.4-0.3 0.2-0.2 0.3-0.4v-1.4h-1.1q-1 0-1.6 0.3-0.6 0.3-0.6 1 0 0.2 0.1 0.5 0.1 0.2 0.3 0.3 0.1 0.2 0.4 0.3 0.3 0.1 0.6 0.1zm6.4-6.1l0.1 1.1q0.4-0.6 0.9-0.9 0.6-0.3 1.3-0.3 0.5 0 0.9 0.2 0.5 0.1 0.8 0.4 0.3 0.4 0.5 0.9 0.2 0.5 0.2 1.2v4.3h-1.2v-4.3q0-0.5-0.1-0.8-0.1-0.3-0.3-0.5-0.2-0.2-0.5-0.3-0.3-0.1-0.7-0.1-0.6 0-1 0.3-0.5 0.3-0.7 0.8v5h-1.2v-6.9zm11.4 5q0-0.2-0.1-0.4-0.1-0.2-0.3-0.3-0.2-0.1-0.5-0.2-0.4-0.2-0.8-0.3-0.6-0.1-1.1-0.3-0.5-0.1-0.9-0.4-0.3-0.2-0.5-0.5-0.2-0.3-0.2-0.8 0-0.4 0.2-0.8 0.2-0.3 0.5-0.6 0.4-0.3 0.9-0.4 0.5-0.2 1.1-0.2 0.6 0 1.1 0.2 0.5 0.1 0.9 0.4 0.4 0.3 0.6 0.7 0.2 0.4 0.2 0.8l-1.2 0.1q0-0.3-0.1-0.5-0.2-0.2-0.4-0.4-0.2-0.1-0.5-0.2-0.2-0.1-0.6-0.1-0.4 0-0.7 0.1-0.3 0-0.4 0.2-0.2 0.1-0.3 0.3-0.1 0.2-0.1 0.4 0 0.2 0.1 0.4 0 0.1 0.2 0.2 0.2 0.2 0.5 0.3 0.3 0.1 0.8 0.2 0.7 0.1 1.2 0.3 0.5 0.1 0.8 0.4 0.4 0.2 0.6 0.6 0.1 0.3 0.1 0.7 0 0.5-0.2 0.8-0.2 0.4-0.5 0.7-0.4 0.3-0.9 0.4-0.5 0.2-1.1 0.2-0.7 0-1.3-0.2-0.5-0.2-0.9-0.5-0.4-0.3-0.6-0.7-0.2-0.4-0.2-0.9h1.2q0 0.4 0.2 0.6 0.1 0.3 0.4 0.4 0.2 0.2 0.5 0.2 0.4 0.1 0.6 0.1 0.8 0 1.2-0.3 0.5-0.3 0.5-0.7zm7.8 1.8q-0.1-0.1-0.1-0.3-0.1-0.2-0.1-0.4-0.2 0.1-0.4 0.3-0.2 0.2-0.5 0.3-0.3 0.1-0.6 0.2-0.3 0-0.6 0-0.5 0-1-0.1-0.4-0.2-0.7-0.4-0.3-0.3-0.5-0.7-0.2-0.4-0.2-0.8 0-0.6 0.2-1 0.3-0.4 0.7-0.7 0.4-0.3 1-0.4 0.5-0.2 1.3-0.2h1.3v-0.5q-0.1-0.3-0.2-0.6-0.1-0.2-0.3-0.4-0.2-0.2-0.5-0.3-0.3-0.1-0.7-0.1-0.3 0-0.6 0.1-0.3 0.1-0.5 0.3-0.2 0.1-0.3 0.3-0.1 0.2-0.1 0.4h-1.2q0-0.3 0.2-0.7 0.2-0.4 0.6-0.7 0.3-0.3 0.8-0.4 0.5-0.2 1.2-0.2 0.6 0 1.1 0.1 0.5 0.2 0.8 0.5 0.4 0.2 0.6 0.7 0.2 0.4 0.2 1v3.2q0.1 0.3 0.1 0.7 0.1 0.4 0.2 0.7v0.1zm-2.1-0.9q0.4 0 0.7-0.1 0.3-0.1 0.5-0.2 0.2-0.2 0.4-0.3 0.2-0.2 0.3-0.4v-1.4h-1.1q-1 0-1.6 0.3-0.6 0.3-0.6 0.9 0 0.3 0.1 0.5 0.1 0.2 0.3 0.4 0.1 0.1 0.4 0.2 0.3 0.1 0.6 0.1zm8.3 0.1q0.4 0 0.7-0.1 0.3-0.1 0.5-0.3 0.2-0.2 0.4-0.5 0.1-0.2 0.1-0.5h1.1q0 0.5-0.2 0.9-0.2 0.4-0.6 0.7-0.4 0.3-0.9 0.5-0.5 0.2-1 0.2-0.8 0-1.4-0.3-0.6-0.2-1-0.7-0.4-0.5-0.6-1.1-0.2-0.6-0.2-1.3v-0.3q0-0.7 0.2-1.3 0.2-0.6 0.6-1.1 0.4-0.5 0.9-0.8 0.6-0.2 1.4-0.2 0.6 0 1.1 0.2 0.6 0.1 0.9 0.5 0.4 0.3 0.6 0.8 0.2 0.4 0.2 1h-1.1q0-0.4-0.1-0.6-0.2-0.3-0.4-0.5-0.2-0.2-0.5-0.4-0.3-0.1-0.7-0.1-0.5 0-0.9 0.3-0.4 0.2-0.6 0.5-0.2 0.4-0.3 0.8-0.1 0.5-0.1 0.9v0.3q0 0.4 0.1 0.9 0.1 0.4 0.3 0.8 0.2 0.3 0.6 0.5 0.4 0.3 0.9 0.3zm7.7-7.8v1.7h2.6l0.1 0.9h-2.7v3.7q0 0.4 0.1 0.7 0.1 0.3 0.3 0.4 0.2 0.2 0.4 0.2 0.3 0.1 0.5 0.1 0.2 0 0.4 0 0.2-0.1 0.4-0.1 0.2 0 0.4 0 0.2-0.1 0.3-0.1l0.1 0.8q-0.1 0.1-0.3 0.2-0.2 0-0.5 0.1-0.2 0-0.5 0.1-0.3 0-0.6 0-0.4 0-0.8-0.1-0.4-0.2-0.7-0.4-0.3-0.3-0.5-0.8-0.1-0.4-0.1-1.1l-0.1-3.7h-1.8v-0.9h1.8v-1.7zm5.3 1.7l3.5-0.1v5.9h2.3v1.1h-5.8v-1.1h2.3v-4.8h-2.3zm2.2-1.8q0-0.3 0.1-0.5 0.2-0.2 0.6-0.2 0.3 0 0.5 0.2 0.2 0.2 0.2 0.5 0 0.2-0.2 0.4-0.2 0.2-0.5 0.2-0.4 0-0.6-0.2-0.1-0.1-0.1-0.4zm5.1 5.2q0-0.8 0.2-1.4 0.3-0.7 0.7-1.1 0.4-0.5 0.9-0.8 0.6-0.3 1.3-0.3 0.8 0 1.4 0.3 0.6 0.3 1 0.7 0.4 0.5 0.6 1.2 0.2 0.6 0.2 1.3v0.2q0 0.7-0.2 1.4-0.2 0.6-0.6 1.1-0.4 0.5-1 0.7-0.6 0.3-1.3 0.3-0.7 0-1.3-0.3-0.6-0.2-1-0.7-0.4-0.5-0.7-1.1-0.2-0.7-0.2-1.4zm1.2 0.1q0 0.5 0.1 1 0.2 0.5 0.4 0.8 0.2 0.4 0.6 0.6 0.4 0.2 0.9 0.2 0.5 0 0.8-0.2 0.4-0.2 0.6-0.6 0.3-0.3 0.4-0.8 0.1-0.5 0.1-1v-0.1q0-0.5-0.1-1-0.1-0.4-0.4-0.8-0.2-0.3-0.6-0.5-0.4-0.3-0.8-0.3-0.5 0-0.9 0.3-0.4 0.2-0.6 0.5-0.3 0.4-0.4 0.8-0.1 0.5-0.1 1zm8.1-3.6v1.1q0.4-0.6 1-0.9 0.5-0.3 1.2-0.3 0.5 0 1 0.2 0.4 0.1 0.7 0.4 0.4 0.4 0.5 0.9 0.2 0.5 0.2 1.2v4.3h-1.2v-4.3q0-0.5-0.1-0.8-0.1-0.3-0.3-0.5-0.2-0.2-0.5-0.3-0.3-0.1-0.7-0.1-0.5 0-1 0.3-0.4 0.3-0.7 0.8v5h-1.2v-7zm11.4 5.1q0-0.2-0.1-0.4-0.1-0.2-0.3-0.3-0.2-0.1-0.5-0.2-0.3-0.2-0.8-0.3-0.6-0.1-1.1-0.3-0.5-0.1-0.8-0.4-0.4-0.2-0.6-0.5-0.2-0.3-0.2-0.8 0-0.4 0.2-0.8 0.2-0.3 0.6-0.6 0.4-0.3 0.8-0.4 0.5-0.2 1.1-0.2 0.7 0 1.2 0.2 0.5 0.1 0.9 0.4 0.3 0.3 0.5 0.7 0.2 0.4 0.2 0.8h-1.2q0-0.2-0.1-0.4-0.1-0.2-0.3-0.4-0.2-0.1-0.5-0.2-0.3-0.1-0.7-0.1-0.3 0-0.6 0.1-0.3 0-0.5 0.2-0.2 0.1-0.3 0.3-0.1 0.2-0.1 0.4 0 0.2 0.1 0.3 0.1 0.2 0.3 0.3 0.2 0.2 0.5 0.3 0.3 0.1 0.8 0.2 0.6 0.1 1.1 0.3 0.5 0.1 0.9 0.4 0.3 0.2 0.5 0.6 0.2 0.3 0.2 0.7 0 0.5-0.2 0.8-0.2 0.4-0.6 0.7-0.4 0.3-0.9 0.4-0.5 0.2-1.1 0.2-0.7 0-1.3-0.2-0.5-0.2-0.9-0.5-0.4-0.3-0.6-0.7-0.2-0.4-0.2-0.9h1.2q0 0.4 0.2 0.6 0.2 0.3 0.4 0.4 0.3 0.2 0.6 0.2 0.3 0.1 0.6 0.1 0.7 0 1.2-0.3 0.4-0.3 0.4-0.7zm5.4-7.3l-0.2 2.4h-0.8v-2.3-0.8h1zm2.2 0l-0.1 2.4h-0.8v-2.3-0.8h0.9zm-208 26.2q0-0.8 0.2-1.5 0.1-0.6 0.5-1.1 0.4-0.4 0.9-0.7 0.5-0.3 1.1-0.3 0.6 0 1.1 0.2 0.4 0.2 0.8 0.6l-0.1-3.5h1.2l0.1 9.7h-1l-0.1-0.7q-0.3 0.4-0.8 0.6-0.5 0.3-1.1 0.3-0.6 0-1.2-0.3-0.5-0.3-0.8-0.7-0.4-0.5-0.6-1.1-0.2-0.7-0.2-1.4zm1.2 0.1q0 0.5 0.1 1 0.1 0.4 0.3 0.8 0.3 0.3 0.6 0.5 0.4 0.2 0.9 0.2 0.3 0 0.5-0.1 0.2 0 0.4-0.2 0.2-0.1 0.4-0.3 0.1-0.2 0.2-0.4v-3.2q-0.2-0.4-0.6-0.7-0.4-0.2-1-0.2-0.5 0-0.9 0.2-0.3 0.2-0.5 0.5-0.2 0.4-0.3 0.8-0.1 0.5-0.1 1zm11.4 3.3q-0.1-0.1-0.1-0.3-0.1-0.2-0.1-0.4-0.2 0.1-0.4 0.3-0.2 0.2-0.5 0.3-0.2 0.1-0.5 0.2-0.3 0.1-0.7 0.1-0.5 0-1-0.2-0.4-0.2-0.7-0.4-0.3-0.3-0.5-0.7-0.2-0.3-0.2-0.8 0-0.5 0.2-1 0.3-0.4 0.7-0.7 0.4-0.3 1-0.4 0.5-0.1 1.3-0.1h1.2v-0.6q0-0.3-0.1-0.5-0.1-0.3-0.3-0.5-0.2-0.1-0.5-0.2-0.3-0.1-0.7-0.1-0.4 0-0.6 0.1-0.3 0-0.5 0.2-0.2 0.1-0.3 0.3-0.1 0.2-0.1 0.5h-1.2q0-0.4 0.2-0.8 0.2-0.3 0.5-0.6 0.4-0.3 0.9-0.5 0.5-0.2 1.1-0.2 0.6 0 1.1 0.2 0.5 0.1 0.9 0.4 0.4 0.3 0.6 0.7 0.2 0.4 0.2 1v3.2q0 0.4 0.1 0.7 0.1 0.4 0.2 0.7v0.1zm-2.1-0.9q0.4 0 0.7-0.1 0.3-0.1 0.5-0.2 0.2-0.1 0.4-0.3 0.2-0.2 0.3-0.4v-1.4h-1.1q-1.1 0-1.6 0.3-0.6 0.3-0.6 1 0 0.2 0.1 0.4 0.1 0.2 0.3 0.4 0.2 0.2 0.4 0.2 0.3 0.1 0.6 0.1zm8.1-7.6v1.6h2.6v0.9h-2.6l0.1 3.8q0 0.4 0.1 0.6 0.1 0.3 0.2 0.5 0.2 0.1 0.5 0.2 0.2 0 0.5 0 0.1 0 0.3 0 0.2 0 0.4 0 0.2-0.1 0.4-0.1 0.2 0 0.3-0.1l0.2 0.9q-0.2 0-0.4 0.1-0.2 0.1-0.5 0.1-0.2 0.1-0.5 0.1-0.3 0-0.5 0-0.5 0-0.9-0.1-0.4-0.1-0.7-0.4-0.3-0.3-0.5-0.7-0.1-0.5-0.1-1.1l-0.1-3.8h-1.8v-0.9h1.8v-1.6zm9.6 8.5q0-0.1-0.1-0.3 0-0.2 0-0.5-0.2 0.2-0.4 0.4-0.2 0.1-0.5 0.3-0.3 0.1-0.6 0.1-0.3 0.1-0.6 0.1-0.5 0-1-0.1-0.4-0.2-0.8-0.5-0.3-0.2-0.4-0.6-0.2-0.4-0.2-0.8 0-0.6 0.2-1 0.2-0.4 0.6-0.7 0.4-0.3 1-0.4 0.6-0.2 1.3-0.2h1.3v-0.5q0-0.3-0.1-0.6-0.1-0.2-0.4-0.4-0.2-0.2-0.5-0.3-0.3-0.1-0.7-0.1-0.3 0-0.6 0.1-0.3 0.1-0.4 0.3-0.2 0.1-0.3 0.3-0.1 0.2-0.1 0.4h-1.2q0-0.3 0.2-0.7 0.2-0.4 0.5-0.7 0.4-0.3 0.9-0.4 0.5-0.2 1.1-0.2 0.6 0 1.1 0.1 0.5 0.2 0.9 0.5 0.3 0.2 0.5 0.7 0.3 0.4 0.3 1v3.2q0 0.3 0.1 0.7 0 0.4 0.2 0.7v0.1zm-2.1-0.9q0.3 0 0.6-0.1 0.3-0.1 0.6-0.2 0.2-0.2 0.4-0.4 0.2-0.2 0.3-0.4l-0.1-1.4-1.1 0.1q-1 0-1.6 0.3-0.5 0.3-0.5 0.9 0 0.3 0.1 0.5 0.1 0.2 0.2 0.4 0.2 0.1 0.5 0.2 0.2 0.1 0.6 0.1zm10.5-2.7h-4.9v-1h4.8zm5.8 3.7q-0.7 0-1.3-0.2-0.6-0.3-1.1-0.7-0.4-0.5-0.7-1.1-0.2-0.6-0.2-1.3v-0.3q0-0.8 0.2-1.5 0.3-0.6 0.7-1.1 0.5-0.4 1-0.7 0.6-0.2 1.2-0.2 0.7 0 1.3 0.2 0.5 0.3 0.9 0.8 0.4 0.4 0.6 1 0.1 0.6 0.2 1.4v0.5h-4.9q0 0.5 0.1 0.9 0.2 0.4 0.5 0.7 0.3 0.3 0.7 0.5 0.4 0.2 0.9 0.2 0.6 0 1.1-0.3 0.5-0.3 0.8-0.7l0.7 0.6q-0.2 0.2-0.4 0.5-0.3 0.2-0.6 0.4-0.3 0.2-0.8 0.3-0.4 0.1-0.9 0.1zm-0.2-6.2q-0.4 0.1-0.7 0.2-0.3 0.1-0.6 0.4-0.2 0.2-0.4 0.6-0.2 0.3-0.2 0.8h3.7v-0.1q0-0.3-0.2-0.7-0.1-0.3-0.3-0.6-0.2-0.2-0.5-0.4-0.4-0.2-0.8-0.2zm6-0.8v1q0.4-0.5 1-0.8 0.5-0.3 1.2-0.3 0.5 0 1 0.1 0.4 0.2 0.7 0.5 0.3 0.3 0.5 0.8 0.2 0.5 0.2 1.2v4.4h-1.1l-0.1-4.4q0-0.4-0.1-0.7-0.1-0.4-0.3-0.6-0.2-0.2-0.5-0.2-0.3-0.1-0.7-0.1-0.6 0-1 0.3-0.4 0.3-0.7 0.7l0.1 5h-1.2l-0.1-6.9zm9.5 5.2l0.1 0.4 0.1-0.4 1.9-5.2h1.2l-2.7 6.9h-0.9l-2.9-6.9h1.2zm10.7-3.3h-5.6v-1h5.6zm0.1 2.6h-5.7v-1h5.7zm4.1-6.8l-0.1 2.4h-0.8v-2.3-0.8h0.9zm2.3 0l-0.1 2.4h-0.8v-2.3l-0.1-0.8h1zm8.1 7.3q0-0.2-0.1-0.4-0.1-0.2-0.3-0.3-0.2-0.2-0.5-0.3-0.3-0.1-0.8-0.2-0.6-0.1-1.1-0.3-0.5-0.2-0.8-0.4-0.4-0.2-0.6-0.5-0.2-0.4-0.2-0.8 0-0.4 0.2-0.8 0.2-0.3 0.6-0.6 0.3-0.3 0.8-0.5 0.5-0.1 1.1-0.1 0.6 0 1.1 0.1 0.6 0.2 0.9 0.5 0.4 0.3 0.6 0.7 0.2 0.4 0.2 0.8h-1.2q0-0.2-0.1-0.4-0.1-0.2-0.3-0.4-0.3-0.1-0.5-0.2-0.3-0.2-0.7-0.1-0.4 0-0.7 0-0.2 0.1-0.4 0.3-0.2 0.1-0.3 0.3-0.1 0.2-0.1 0.4 0 0.2 0.1 0.3 0.1 0.2 0.2 0.3 0.2 0.1 0.6 0.2 0.3 0.1 0.8 0.2 0.6 0.2 1.1 0.3 0.5 0.2 0.8 0.5 0.4 0.2 0.6 0.5 0.2 0.4 0.2 0.8 0 0.4-0.2 0.8-0.2 0.4-0.6 0.7-0.4 0.2-0.9 0.4-0.5 0.1-1.1 0.1-0.7 0-1.3-0.2-0.5-0.2-0.9-0.5-0.4-0.3-0.6-0.7-0.2-0.4-0.2-0.8h1.2q0 0.3 0.2 0.6 0.2 0.2 0.4 0.4 0.3 0.1 0.6 0.2 0.3 0.1 0.6 0.1 0.7 0 1.2-0.3 0.4-0.3 0.4-0.7zm7.8 1.8q-0.1-0.2-0.1-0.4-0.1-0.2-0.1-0.4-0.2 0.2-0.4 0.4-0.2 0.1-0.5 0.2-0.2 0.2-0.5 0.2-0.3 0.1-0.7 0.1-0.5 0-1-0.2-0.4-0.1-0.7-0.4-0.3-0.2-0.5-0.6-0.2-0.4-0.2-0.8 0-0.6 0.2-1 0.3-0.4 0.7-0.7 0.4-0.3 1-0.5 0.5-0.1 1.3-0.1h1.2v-0.5q0-0.4-0.1-0.6-0.1-0.2-0.3-0.4-0.2-0.2-0.5-0.3-0.3-0.1-0.7-0.1-0.3 0-0.6 0.1-0.3 0.1-0.5 0.2-0.2 0.2-0.3 0.4-0.1 0.2-0.1 0.4h-1.2q0-0.4 0.2-0.7 0.2-0.4 0.6-0.7 0.3-0.3 0.8-0.5 0.5-0.1 1.2-0.1 0.5 0 1 0.1 0.6 0.1 0.9 0.4 0.4 0.3 0.6 0.8 0.2 0.4 0.2 1l0.1 3.2q0 0.3 0 0.7 0.1 0.4 0.2 0.7v0.1zm-2.1-0.9q0.4 0 0.7-0.1 0.3-0.1 0.5-0.2 0.2-0.2 0.4-0.4 0.2-0.2 0.3-0.4v-1.4h-1.1q-1 0-1.6 0.3-0.6 0.3-0.6 1 0 0.3 0.1 0.5 0.1 0.2 0.3 0.4 0.2 0.1 0.4 0.2 0.3 0.1 0.6 0.1zm6.4-6l0.1 1q0.4-0.5 0.9-0.8 0.6-0.3 1.2-0.4 0.6 0 1 0.2 0.5 0.1 0.8 0.5 0.3 0.3 0.5 0.8 0.1 0.5 0.1 1.2l0.1 4.4h-1.2v-4.4q0-0.4-0.1-0.8-0.2-0.3-0.4-0.5-0.2-0.2-0.4-0.3-0.3-0.1-0.7-0.1-0.6 0-1.1 0.3-0.4 0.3-0.7 0.8l0.1 5h-1.2l-0.1-6.9zm6.6 3.4q0-0.8 0.2-1.5 0.2-0.6 0.5-1.1 0.4-0.4 0.9-0.7 0.5-0.3 1.1-0.3 0.7 0 1.1 0.2 0.5 0.2 0.8 0.6v-3.5h1.2l0.1 9.7h-1.1l-0.1-0.7q-0.3 0.4-0.8 0.7-0.5 0.2-1.1 0.2-0.6 0-1.1-0.3-0.5-0.3-0.9-0.7-0.4-0.5-0.6-1.1-0.2-0.7-0.2-1.4zm1.2 0.1q0 0.5 0.1 1 0.1 0.4 0.4 0.8 0.2 0.3 0.5 0.5 0.4 0.2 0.9 0.2 0.3 0 0.5-0.1 0.3 0 0.5-0.2 0.2-0.1 0.3-0.3 0.2-0.2 0.3-0.4l-0.1-3.2q-0.2-0.4-0.6-0.7-0.4-0.2-0.9-0.2-0.5 0-0.9 0.2-0.3 0.2-0.6 0.5-0.2 0.4-0.3 0.8-0.1 0.5-0.1 1zm12.7 0q0 0.7-0.2 1.3-0.1 0.7-0.5 1.1-0.3 0.5-0.8 0.8-0.5 0.3-1.2 0.3-0.6 0-1.1-0.3-0.5-0.2-0.9-0.7v0.8h-1.1l-0.1-9.7h1.2v3.6q0.4-0.4 0.8-0.7 0.5-0.2 1.2-0.2 0.6 0 1.1 0.3 0.5 0.2 0.9 0.7 0.3 0.5 0.5 1.1 0.2 0.7 0.2 1.4zm-1.2-0.1q0-0.5-0.1-1-0.1-0.4-0.3-0.8-0.2-0.3-0.6-0.5-0.3-0.2-0.8-0.2-0.3 0-0.6 0.1-0.2 0-0.4 0.2-0.2 0.1-0.4 0.3-0.1 0.2-0.3 0.4l0.1 3.1q0.1 0.2 0.2 0.4 0.2 0.2 0.4 0.3 0.2 0.2 0.5 0.2 0.2 0.1 0.5 0.1 0.5 0 0.9-0.2 0.3-0.2 0.5-0.5 0.2-0.4 0.3-0.8 0.1-0.5 0.1-1zm2.9 0q0-0.7 0.2-1.4 0.2-0.6 0.6-1.1 0.4-0.5 1-0.7 0.5-0.3 1.3-0.3 0.7 0 1.3 0.3 0.6 0.2 1 0.7 0.4 0.5 0.6 1.1 0.2 0.7 0.2 1.4v0.1q0 0.8-0.2 1.4-0.2 0.7-0.6 1.1-0.4 0.5-1 0.8-0.5 0.2-1.3 0.2-0.7 0-1.3-0.2-0.6-0.3-1-0.8-0.4-0.4-0.6-1.1-0.2-0.6-0.2-1.3zm1.2 0.1q0 0.5 0.1 1 0.1 0.4 0.3 0.8 0.3 0.3 0.7 0.5 0.3 0.2 0.8 0.2 0.5 0 0.9-0.2 0.3-0.2 0.6-0.5 0.2-0.4 0.3-0.8 0.2-0.5 0.2-1v-0.2q0-0.5-0.2-0.9-0.1-0.5-0.3-0.8-0.3-0.4-0.7-0.6-0.3-0.2-0.8-0.2-0.5 0-0.9 0.2-0.3 0.2-0.6 0.6-0.2 0.3-0.3 0.8-0.2 0.4-0.1 0.9zm9.8-0.9l1.8-2.6h1.4l-2.6 3.4 2.7 3.5h-1.4l-1.9-2.6-1.9 2.6h-1.3l2.6-3.5-2.6-3.4h1.3zm7.1-4.8l-0.1 2.4h-0.8l-0.1-2.3v-0.7h1zm2.3-0.1l-0.1 2.4h-0.9v-2.3-0.7h1zm3.5 3.2v-1.2l5.6 2.4v1l-5.6 2.4v-1.2l4.1-1.6 0.4-0.1-0.4-0.1zm-154.6 21.9l-0.4 0.1 0.4 0.1 3.9 1.5v1.2l-5.4-2.4v-0.9l5.3-2.4v1.2zm8 5h-1.1l3.7-10h1.1zm10.7-2.7q0-0.2 0-0.3-0.1-0.2-0.3-0.3-0.2-0.2-0.5-0.3-0.4-0.1-0.9-0.2-0.5-0.1-1-0.3-0.5-0.2-0.9-0.4-0.3-0.2-0.5-0.6-0.2-0.3-0.2-0.7 0-0.4 0.2-0.8 0.2-0.3 0.5-0.6 0.4-0.3 0.8-0.5 0.5-0.1 1.1-0.1 0.7 0 1.2 0.1 0.5 0.2 0.8 0.5 0.4 0.3 0.6 0.7 0.2 0.4 0.2 0.8h-1.2q0-0.2-0.1-0.4-0.1-0.2-0.3-0.4-0.2-0.2-0.5-0.3-0.3-0.1-0.7-0.1-0.3 0-0.6 0.1-0.3 0.1-0.5 0.3-0.2 0.1-0.3 0.3 0 0.2 0 0.4 0 0.2 0 0.3 0.1 0.2 0.3 0.3 0.2 0.1 0.5 0.2 0.3 0.1 0.8 0.2 0.6 0.2 1.1 0.3 0.5 0.2 0.9 0.5 0.3 0.2 0.5 0.5 0.2 0.3 0.2 0.8 0 0.4-0.2 0.8-0.2 0.4-0.5 0.6-0.4 0.3-0.9 0.4-0.5 0.2-1.1 0.2-0.7 0-1.3-0.2-0.5-0.2-0.9-0.5-0.4-0.3-0.6-0.7-0.2-0.4-0.2-0.8h1.2q0 0.3 0.2 0.6 0.1 0.2 0.4 0.4 0.2 0.1 0.5 0.2 0.4 0 0.6 0 0.8 0 1.2-0.2 0.4-0.3 0.4-0.8zm6.2 1q0.3 0 0.6-0.1 0.3-0.1 0.6-0.3 0.2-0.1 0.3-0.4 0.2-0.2 0.2-0.5h1.1q0 0.4-0.2 0.9-0.3 0.4-0.6 0.7-0.4 0.3-0.9 0.5-0.5 0.2-1.1 0.2-0.7 0-1.3-0.3-0.6-0.3-1-0.7-0.4-0.5-0.6-1.1-0.2-0.7-0.2-1.3v-0.3q0-0.7 0.1-1.3 0.2-0.6 0.6-1.1 0.4-0.5 1-0.8 0.6-0.2 1.3-0.2 0.6 0 1.2 0.2 0.5 0.2 0.8 0.5 0.4 0.3 0.6 0.8 0.3 0.4 0.3 0.9l-1.1 0.1q-0.1-0.4-0.2-0.6-0.1-0.3-0.4-0.5-0.2-0.2-0.5-0.3-0.3-0.2-0.6-0.2-0.6 0-1 0.3-0.3 0.2-0.6 0.5-0.2 0.4-0.3 0.8-0.1 0.5-0.1 0.9v0.3q0.1 0.4 0.2 0.9 0.1 0.4 0.3 0.7 0.2 0.4 0.6 0.6 0.4 0.2 0.9 0.2zm9.3-6.1q0.2-0.1 0.4 0 0.1 0 0.3 0 0.2 0 0.3 0 0.1 0.1 0.2 0.1l-0.1 1.2q-0.4-0.1-0.7-0.1-0.3-0.1-0.6-0.1-0.8 0-1.4 0.4-0.5 0.4-0.7 1l0.1 4.4h-1.2l-0.1-6.8h1.1l0.1 1.1q0.4-0.6 1-0.9 0.6-0.3 1.3-0.3zm3.5 0.1h3.5l0.1 5.8h2.2v1h-5.7v-1h2.3v-4.8h-2.4zm2.2-1.8q0-0.3 0.1-0.5 0.2-0.2 0.6-0.2 0.3 0 0.5 0.2 0.2 0.2 0.2 0.5 0 0.3-0.2 0.5-0.2 0.1-0.5 0.2-0.4 0-0.5-0.2-0.2-0.2-0.2-0.5zm11.3 5.3q0 0.7-0.2 1.4-0.2 0.6-0.5 1.1-0.3 0.4-0.8 0.7-0.5 0.3-1.2 0.3-0.6 0-1.1-0.2-0.5-0.2-0.8-0.6v3.3h-1.1l-0.2-9.5h1.1l0.1 0.7q0.3-0.4 0.8-0.6 0.5-0.3 1.1-0.3 0.7 0 1.2 0.3 0.5 0.3 0.8 0.7 0.4 0.5 0.6 1.1 0.2 0.7 0.2 1.4zm-1.2-0.1q0-0.5-0.1-0.9-0.1-0.5-0.4-0.8-0.2-0.4-0.6-0.6-0.3-0.2-0.8-0.2-0.6 0-1 0.3-0.4 0.2-0.6 0.6l0.1 3.4q0.2 0.4 0.6 0.6 0.4 0.3 1 0.3 0.4 0 0.8-0.2 0.3-0.2 0.6-0.6 0.2-0.3 0.3-0.8 0.1-0.5 0.1-1zm5.9-5v1.7h2.6v0.9h-2.6l0.1 3.7q0 0.4 0.1 0.7 0.1 0.2 0.3 0.4 0.2 0.1 0.4 0.2 0.2 0 0.5 0 0.2 0 0.4 0 0.2 0 0.4 0 0.2-0.1 0.3-0.1 0.2 0 0.3-0.1l0.2 0.9q-0.2 0.1-0.4 0.1-0.2 0.1-0.4 0.1-0.3 0.1-0.6 0.1-0.2 0-0.5 0-0.5 0-0.9-0.1-0.4-0.1-0.7-0.4-0.2-0.3-0.4-0.7-0.2-0.5-0.2-1.1v-3.7h-1.8l-0.1-0.9h1.8v-1.7zm5.1 2.7v-1.2l5.6 2.4v0.9l-5.5 2.5-0.1-1.3 4.1-1.5 0.4-0.1-0.4-0.1z"/></g></svg>